<svg width="28" height="28" viewBox="0 0 28 28" fill="none" xmlns="http://www.w3.org/2000/svg">
<circle cx="14" cy="14" r="14" fill="#E3E3E3" fill-opacity="0.4"/>
<circle cx="7.64409" cy="11.9827" r="1.64412" transform="rotate(-180 7.64409 11.9827)" fill="#181818"/>
<path d="M6 16.0741C6 15.3969 6.52482 14.6885 7.31276 14.5484C8.1007 14.4083 11.6307 13.6998 12.0719 13.6055C12.5132 13.5113 13.4514 13.1567 13.4514 11.9715C13.4514 11.0234 12.8597 10.557 12.5371 10.2849C12.1409 9.95062 11.284 9.1742 10.8914 8.82621C10.4083 8.39788 10.2514 8.13708 10.2514 7.45869C10.2514 6.59259 11.0616 6 11.4731 6L16.3771 6C16.88 6 17.7485 6.59259 17.7485 7.45869C17.7485 8.15157 17.4929 8.57967 17.2457 8.82621C16.8952 9.11491 16.0663 9.81083 15.5543 10.2849C14.9143 10.8775 14.5486 11.151 14.5486 11.9715C14.5486 12.792 15.28 13.4758 16.0571 13.4758C16.6788 13.4758 17.2 13.1111 17.3828 12.9288C17.7028 12.5641 18.4251 11.7345 18.7543 11.3333C19.1657 10.8319 19.6697 10.2849 20.4468 10.2849C21.1699 10.2849 22 10.8671 22 11.6865L22 20.4501C22 21.0225 21.4605 22 20.4 22C19.3394 22 18.8609 20.9668 18.7543 20.4501L17.6571 15.6638C17.52 15.2688 17.008 14.4786 16.0571 14.4786C15.1063 14.4786 14.6552 15.2688 14.5486 15.6638C14.259 16.8946 13.6343 19.5749 13.4514 20.4501C13.2228 21.5442 12.6286 22 11.8971 22C11.312 22 10.9219 21.7569 10.8 21.6353L6.77714 17.6239C6.41143 17.2593 6 16.8741 6 16.0741Z" fill="#181818"/>
</svg>
