<svg width="16" height="20" viewBox="0 0 16 20" fill="none" xmlns="http://www.w3.org/2000/svg">
<path d="M6.56211 16.9768H13.8674C15.2913 16.9768 15.9998 16.2546 15.9998 14.8238V8.57787H11.0195C10.139 8.57787 9.71946 8.15823 9.71946 7.27775V2.22876H6.56211C5.14507 2.22876 4.42969 2.9579 4.42969 4.38869V14.8238C4.42969 16.2614 5.1382 16.9768 6.56211 16.9768ZM11.0402 7.63546H15.9172C15.876 7.35341 15.6764 7.07829 15.3463 6.74124L11.5561 2.88224C11.2328 2.55206 10.9507 2.35257 10.6619 2.30442V7.26401C10.6619 7.51166 10.7857 7.63546 11.0402 7.63546Z" fill="#AFD500"/>
<path d="M4.42993 19.2127C6.85126 19.2127 8.86675 17.2041 8.86675 14.7828C8.86675 12.3477 6.865 10.3459 4.42993 10.3459C2.00172 10.3459 0 12.3477 0 14.7828C0 17.2247 1.99484 19.2127 4.42993 19.2127Z" fill="#1C1C1E"/>
<path d="M4.13363 18.3387H4.7252C4.93844 18.3387 5.10353 18.2149 5.15168 17.9948L5.31677 17.3207C5.41308 17.2931 5.52314 17.245 5.61944 17.1969L6.21099 17.5545C6.38985 17.6715 6.58937 17.6715 6.75443 17.5064L7.16027 17.0937C7.30473 16.9355 7.31852 16.7428 7.20154 16.5434L6.85075 15.9449C6.90575 15.8555 6.93328 15.7661 6.96768 15.6697L7.64865 15.5116C7.8619 15.4565 7.99949 15.2914 7.99949 15.0782V14.4935C7.99949 14.2871 7.85503 14.1358 7.64865 14.0808L6.97455 13.9157C6.93328 13.7987 6.89202 13.7162 6.85762 13.6337L7.22907 13.0214C7.33913 12.8426 7.31852 12.6225 7.17407 12.4849L6.75443 12.079C6.59623 11.9208 6.38985 11.8864 6.21792 12.0034L5.61944 12.3817C5.5025 12.3198 5.41308 12.2923 5.31677 12.2579L5.15168 11.57C5.10353 11.3637 4.93844 11.2261 4.7252 11.2261H4.13363C3.92039 11.2261 3.74842 11.3705 3.70026 11.57L3.54893 12.251C3.42511 12.2923 3.33569 12.3198 3.23251 12.3817L2.63405 12.0034C2.46896 11.8933 2.25572 11.9208 2.10439 12.079L1.69854 12.4849C1.55409 12.6293 1.50594 12.8426 1.62287 13.0214L2.00121 13.6337C1.96681 13.7162 1.91866 13.8125 1.87739 13.9157L1.21015 14.0808C1.00379 14.1358 0.866211 14.294 0.866211 14.4935V15.0782C0.866211 15.2914 1.00379 15.4565 1.21015 15.5116L1.88427 15.6697C1.93242 15.7661 1.96681 15.8555 2.00809 15.9449L1.65727 16.5502C1.54033 16.7428 1.56097 16.9492 1.70542 17.0937L2.10439 17.5064C2.25572 17.6715 2.46208 17.6646 2.64093 17.5545L3.24626 17.1969C3.35633 17.2587 3.45263 17.2931 3.54893 17.3207L3.70026 17.9948C3.74842 18.2011 3.92039 18.3387 4.13363 18.3387ZM4.42942 15.9311C3.78969 15.9311 3.28754 15.4221 3.28754 14.7893C3.28754 14.1633 3.78969 13.6405 4.42942 13.6337C5.0485 13.6267 5.57817 14.1633 5.57817 14.7893C5.57817 15.4221 5.0485 15.9311 4.42942 15.9311Z" fill="#AFD500"/>
</svg>
