<svg width="28" height="28" viewBox="0 0 28 28" fill="none" xmlns="http://www.w3.org/2000/svg">
<circle cx="14" cy="14" r="14" fill="#E3E3E3" fill-opacity="0.4"/>
<g clip-path="url(#clip0_5143_10108)">
<path d="M14 19.21H8.5C8.10218 19.21 7.72064 19.0519 7.43934 18.7706C7.15804 18.4893 7 18.1078 7 17.71V14.2C7.00264 13.8039 7.16184 13.4249 7.44286 13.1458C7.72388 12.8666 8.1039 12.71 8.5 12.71C8.79375 12.7192 9.07713 12.8207 9.31 13L13.19 15.46C13.4313 15.6162 13.7126 15.6994 14 15.6994C14.2874 15.6994 14.5687 15.6162 14.81 15.46L18.69 13C18.9288 12.8385 19.2117 12.7546 19.5 12.76C19.8876 12.7597 20.2604 12.9094 20.54 13.1779C20.8196 13.4463 20.9845 13.8126 21 14.2V17.71C21 18.1078 20.842 18.4893 20.5607 18.7706C20.2794 19.0519 19.8978 19.21 19.5 19.21H14Z" fill="#231F20"/>
<path d="M14 8H8.50003C8.17657 8.00083 7.86204 8.10621 7.60336 8.30041C7.34468 8.4946 7.1557 8.76722 7.06461 9.07759C6.97352 9.38797 6.9852 9.71947 7.09791 10.0227C7.21062 10.3259 7.41832 10.5845 7.69003 10.76L13.2 14.27C13.44 14.4199 13.7172 14.4993 14 14.4993C14.2829 14.4993 14.5601 14.4199 14.8 14.27L20.31 10.76C20.5817 10.5845 20.7894 10.3259 20.9022 10.0227C21.0149 9.71947 21.0265 9.38797 20.9355 9.07759C20.8444 8.76722 20.6554 8.4946 20.3967 8.30041C20.138 8.10621 19.8235 8.00083 19.5 8H14Z" fill="#231F20"/>
</g>
<defs>
<clipPath id="clip0_5143_10108">
<rect width="14" height="11.21" fill="white" transform="translate(7 8)"/>
</clipPath>
</defs>
</svg>
