<svg width="28" height="28" viewBox="0 0 28 28" fill="none" xmlns="http://www.w3.org/2000/svg">
<circle cx="14" cy="14" r="14" fill="#E3E3E3" fill-opacity="0.4"/>
<path d="M14 21C15.1046 21 16 20.1046 16 19C16 17.8954 15.1046 17 14 17C12.8954 17 12 17.8954 12 19C12 20.1046 12.8954 21 14 21Z" fill="#181818"/>
<path d="M14.7648 6.86736L17.8273 9.94089C18.0429 10.1534 18.179 10.4333 18.2129 10.7341L18.5985 14.1601C18.6257 14.3748 18.7039 14.5798 18.8265 14.758C18.9492 14.9363 19.1127 15.0826 19.3035 15.1846L20.6255 15.8346C20.8925 15.9749 21.1046 16.2009 21.2276 16.4763C21.3507 16.7518 21.3774 17.0606 21.3037 17.353C21.2299 17.6455 21.0599 17.9047 20.821 18.0889C20.5821 18.273 20.2882 18.3715 19.9865 18.3683H7.68138C7.38374 18.3644 7.0957 18.2625 6.86174 18.0784C6.62779 17.8944 6.46094 17.6385 6.38698 17.3501C6.31302 17.0618 6.33605 16.7572 6.45253 16.4832C6.56901 16.2093 6.77245 15.9813 7.03142 15.8346L8.32032 15.1406C8.50412 15.0422 8.66251 14.9024 8.78296 14.7322C8.90342 14.562 8.98263 14.3662 9.01434 14.1601L9.39991 10.8552V10.7341C9.43385 10.4333 9.56996 10.1534 9.78548 9.94089L12.9141 6.86736C13.1691 6.61905 13.511 6.4801 13.867 6.4801C14.223 6.4801 14.5649 6.61905 14.8199 6.86736H14.7648Z" fill="#181818"/>
</svg>
