<svg width="28" height="28" viewBox="0 0 28 28" fill="none" xmlns="http://www.w3.org/2000/svg">
<circle cx="14" cy="14" r="14" fill="#AFD500"/>
<path fill-rule="evenodd" clip-rule="evenodd" d="M6.31109 12.8373C5.8963 13.5568 5.8963 14.4432 6.31109 15.1627L9.15009 20.0873C9.56487 20.8068 10.3314 21.25 11.161 21.25L16.839 21.25C17.6686 21.25 18.4351 20.8068 18.8499 20.0873L21.6889 15.1627C22.1037 14.4432 22.1037 13.5568 21.6889 12.8373L18.8499 7.91272C18.4351 7.19323 17.6686 6.75 16.839 6.75H11.161C10.3314 6.75 9.56487 7.19323 9.15009 7.91272L6.31109 12.8373ZM14 18C16.0519 18 18 16.0549 18 14C18 11.9451 16.0519 10 14 10C11.9481 10 10 11.9451 10 14C10 16.0549 11.9481 18 14 18Z" fill="#181818"/>
</svg>
