<svg width="20" height="24" viewBox="0 0 20 24" fill="none" xmlns="http://www.w3.org/2000/svg">
<path d="M16.6667 13.1118H15.9111L13.6889 15.334H15.8111L17.7778 17.5562H2.22222L4.2 15.334H6.47778L4.25556 13.1118H3.33333L0 16.4451V20.8896C0 22.1118 0.988889 23.1118 2.21111 23.1118H17.7778C19 23.1118 20 22.1229 20 20.8896V16.4451L16.6667 13.1118ZM15.5556 7.5007L10.0556 13.0007L6.12222 9.06736L11.6222 3.56736L15.5556 7.5007ZM10.8444 1.21181L3.76667 8.28958C3.33333 8.72292 3.33333 9.42292 3.76667 9.85625L9.26667 15.3563C9.7 15.7896 10.4 15.7896 10.8333 15.3563L17.9 8.28958C18.3333 7.85625 18.3333 7.15625 17.9 6.72292L12.4 1.22292C11.9778 0.778475 11.2778 0.778475 10.8444 1.21181Z" fill="#E3E3E3"/>
</svg>
