<svg width="13" height="14" viewBox="0 0 13 14" fill="none" xmlns="http://www.w3.org/2000/svg">
<path d="M10.5 7.66718H10.0467L8.71333 9.00051H9.98667L11.1667 10.3338H1.83333L3.02 9.00051H4.38667L3.05333 7.66718H2.5L0.5 9.66718V12.3338C0.5 13.0672 1.09333 13.6672 1.82667 13.6672H11.1667C11.9 13.6672 12.5 13.0738 12.5 12.3338V9.66718L10.5 7.66718ZM9.83333 4.30051L6.53333 7.60051L4.17333 5.24051L7.47333 1.94052L9.83333 4.30051ZM7.00667 0.527182L2.76 4.77385C2.5 5.03385 2.5 5.45385 2.76 5.71385L6.06 9.01385C6.32 9.27385 6.74 9.27385 7 9.01385L11.24 4.77385C11.5 4.51385 11.5 4.09385 11.24 3.83385L7.94 0.533849C7.68667 0.267182 7.26667 0.267182 7.00667 0.527182Z" fill="#E3E3E3" fill-opacity="0.4"/>
</svg>
