<svg width="17" height="19" viewBox="0 0 17 19" fill="none" xmlns="http://www.w3.org/2000/svg">
<g clip-path="url(#clip0_2656_26001)">
<path fill-rule="evenodd" clip-rule="evenodd" d="M4.91577 10.07C7.23319 10.07 9.13821 12.0184 9.13821 14.3885C9.13821 15.1619 8.9316 15.8921 8.57255 16.5242H13.8975C15.2526 16.5242 15.9268 15.8212 15.9268 14.4285V8.34921H11.1872C10.3493 8.34921 9.94997 7.94076 9.94997 7.08376V2.16943H6.94517C5.59659 2.16943 4.91577 2.87913 4.91577 4.27175V10.07ZM15.8483 7.43193H11.2069C10.9647 7.43193 10.8468 7.31144 10.8468 7.07039V2.24308C11.1217 2.28994 11.3902 2.48411 11.6979 2.80549L15.3049 6.56156C15.6191 6.88962 15.809 7.15741 15.8483 7.43193Z" fill="#7E7E7E"/>
<path fill-rule="evenodd" clip-rule="evenodd" d="M5.1972 17.8497H4.63421C4.43127 17.8497 4.26761 17.7158 4.22179 17.5149L4.07777 16.8588C3.98611 16.832 3.89446 16.7985 3.78972 16.7383L3.21364 17.0864C3.04343 17.1936 2.84704 17.2003 2.70302 17.0396L2.32332 16.6379C2.18585 16.4973 2.16621 16.2964 2.2775 16.1089L2.61137 15.5198C2.59608 15.4859 2.58179 15.452 2.56733 15.4177C2.54463 15.3639 2.52152 15.3092 2.49353 15.2519L1.85198 15.0979C1.65559 15.0444 1.52466 14.8837 1.52466 14.6761V14.107C1.52466 13.9129 1.65559 13.7589 1.85198 13.7053L2.48698 13.5446C2.50947 13.4871 2.5341 13.4318 2.55719 13.38C2.57444 13.3413 2.59083 13.3045 2.60482 13.2701L2.24476 12.6742C2.13348 12.5002 2.1793 12.2926 2.31678 12.152L2.70302 11.757C2.84704 11.603 3.04997 11.5762 3.20709 11.6833L3.77663 12.0516C3.86774 11.9957 3.94758 11.9686 4.05275 11.9329C4.06093 11.9301 4.06926 11.9273 4.07777 11.9244L4.22179 11.2615C4.26761 11.0674 4.43127 10.9268 4.63421 10.9268H5.1972C5.40014 10.9268 5.55725 11.0607 5.60308 11.2615L5.76019 11.931C5.77417 11.9362 5.788 11.9411 5.80179 11.946C5.87842 11.9735 5.95392 12.0005 6.04824 12.0516L6.6178 11.6833C6.78142 11.5695 6.97784 11.603 7.12839 11.757L7.52775 12.152C7.66523 12.2859 7.68484 12.5002 7.58009 12.6742L7.2266 13.2701C7.23677 13.2951 7.24758 13.3201 7.25882 13.3461C7.28375 13.4036 7.31081 13.4662 7.33787 13.5446L7.9794 13.7053C8.17582 13.7589 8.31329 13.9061 8.31329 14.107V14.6761C8.31329 14.8837 8.18235 15.0444 7.9794 15.0979L7.33134 15.2519C7.32678 15.265 7.32235 15.2779 7.31796 15.2907C7.2908 15.3699 7.26512 15.4448 7.22006 15.5198L7.55389 16.1022C7.66523 16.2964 7.6521 16.4839 7.51462 16.6379L7.12839 17.0396C6.9713 17.2003 6.78142 17.2003 6.61121 17.0864L6.04824 16.7383C5.95659 16.7851 5.85185 16.832 5.76019 16.8588L5.60308 17.5149C5.55725 17.7292 5.40014 17.8497 5.1972 17.8497ZM3.829 14.3949C3.829 15.0109 4.30689 15.5063 4.91571 15.5063C5.50488 15.5063 6.00896 15.0109 6.00896 14.3949C6.00896 13.7856 5.50488 13.2634 4.91571 13.2701C4.30689 13.2768 3.829 13.7856 3.829 14.3949Z" fill="#7E7E7E"/>
</g>
<defs>
<clipPath id="clip0_2656_26001">
<rect width="15.4" height="18.7" fill="white" transform="translate(0.699951)"/>
</clipPath>
</defs>
</svg>
