<svg width="186" height="112" viewBox="0 0 186 112" fill="none" xmlns="http://www.w3.org/2000/svg">
<path d="M31.5082 63.4917C33.9915 59.7129 38.2096 57.4375 42.7313 57.4375H142.906C147.403 57.4375 151.601 59.688 154.09 63.4328L172.131 90.5736C178.065 99.4995 171.665 111.438 160.947 111.438H24.8954C14.2094 111.438 7.80365 99.5628 13.6723 90.6325L31.5082 63.4917Z" fill="#427404"/>
<rect x="37" y="82.4375" width="5" height="112" rx="2.5" transform="rotate(-90 37 82.4375)" fill="#013106"/>
<path d="M73.0695 3.93344L48.4962 28.5068C43.2516 33.7514 43.2516 42.2545 48.4962 47.4991L83.3984 82.4013H111.404L131.471 62.3348C136.716 57.0903 136.716 48.5871 131.471 43.3425L92.0619 3.93344C86.8173 -1.31114 78.3141 -1.31115 73.0695 3.93344Z" fill="#AFD500"/>
</svg>
