<svg width="16" height="17" viewBox="0 0 16 17" fill="none" xmlns="http://www.w3.org/2000/svg">
<g id="flag.checkered" clip-path="url(#clip0_7168_4529)">
<g id="Group">
<path id="Vector" d="M1.49309 16.86C1.84466 16.86 2.12926 16.5838 2.12926 16.2322V11.5782C2.33852 11.4861 3.12535 11.1848 4.35582 11.1848C7.45292 11.1848 9.39486 12.6999 12.3413 12.6999C13.6471 12.6999 14.1326 12.5576 14.7688 12.2729C15.3464 12.0135 15.723 11.5782 15.723 10.8081V2.31201C15.723 1.86001 15.3379 1.60051 14.8525 1.60051C14.4423 1.60051 13.6722 1.95208 12.2325 1.95208C9.28608 1.95208 7.35247 0.437012 4.247 0.437012C2.9412 0.437012 2.44733 0.579311 1.81118 0.863909C1.23361 1.1234 0.856934 1.55866 0.856934 2.32038V16.2322C0.856934 16.5754 1.1499 16.86 1.49309 16.86ZM2.12926 7.75286V4.91525C2.24644 4.63902 2.9412 4.25398 4.247 4.25398C4.51486 4.25398 4.88316 4.27072 5.17613 4.3042V1.75118C6.30616 1.86837 7.30225 2.19483 8.32343 2.49616V5.04918C9.36136 5.36726 10.3324 5.63511 11.4624 5.73556V3.18255C11.7135 3.20766 11.9646 3.21603 12.2325 3.21603C13.1449 3.21603 13.8982 3.10721 14.4591 2.94817V5.50118C14.0405 5.61837 13.2369 5.76904 12.2325 5.76904C11.973 5.76904 11.7051 5.7523 11.4624 5.73556V8.57314C11.7051 8.59828 11.9395 8.60664 12.2325 8.60664C13.1449 8.60664 13.8982 8.49786 14.4591 8.33878V10.7746C14.3419 11.0509 13.6471 11.4359 12.3413 11.4359C12.0399 11.4359 11.747 11.4191 11.4624 11.3856V8.57314C10.3324 8.44764 9.39486 8.23836 8.32343 7.88678V10.6239C7.35247 10.331 6.348 10.0464 5.17613 9.94593V7.14181C4.85805 7.10833 4.64042 7.09158 4.247 7.09158C2.9412 7.09158 2.24644 7.47663 2.12926 7.75286ZM5.17613 7.14181C6.33126 7.26737 7.21017 7.56034 8.32343 7.88678V5.04918C7.27713 4.73947 6.33963 4.42138 5.17613 4.3042V7.14181Z" fill="#FF9F0A"/>
</g>
</g>
<defs>
<clipPath id="clip0_7168_4529">
<rect width="14.8661" height="16.4314" fill="white" transform="translate(0.856934 0.428467)"/>
</clipPath>
</defs>
</svg>
