<svg width="390" height="264" viewBox="0 0 390 264" fill="none" xmlns="http://www.w3.org/2000/svg">
<path d="M278.94 87.2438C278.218 84.8592 277.72 82.3769 277.471 79.8216L278.043 79.766C277.923 78.5395 277.862 77.2957 277.862 76.0376C277.862 74.7794 277.923 73.5356 278.043 72.3091L277.471 72.2535C277.72 69.6982 278.218 67.2159 278.94 64.8313L279.49 64.9978C280.218 62.5938 281.178 60.2904 282.344 58.1136L281.838 57.8425C283.036 55.6058 284.448 53.5008 286.047 51.5551L286.49 51.9196C288.071 49.9956 289.837 48.2294 291.761 46.6486L291.397 46.2049C293.343 44.6062 295.448 43.1942 297.684 41.9962L297.955 42.5024C300.132 41.3364 302.436 40.3763 304.84 39.648L304.673 39.0984C307.058 38.3759 309.54 37.878 312.095 37.6294L312.151 38.2009C313.377 38.0815 314.621 38.0204 315.879 38.0204C317.138 38.0204 318.381 38.0815 319.608 38.2009L319.663 37.6294C322.219 37.878 324.701 38.3759 327.086 39.0984L326.919 39.648C329.323 40.3763 331.626 41.3364 333.803 42.5024L334.074 41.9961C336.311 43.1942 338.416 44.6062 340.362 46.2049L339.997 46.6486C341.921 48.2294 343.687 49.9955 345.268 51.9196L345.712 51.5551C347.311 53.5008 348.723 55.6057 349.921 57.8425L349.415 58.1136C350.58 60.2904 351.541 62.5938 352.269 64.9978L352.818 64.8313C353.541 67.2159 354.039 69.6982 354.288 72.2535L353.716 72.3091C353.835 73.5356 353.896 74.7794 353.896 76.0375C353.896 77.2957 353.835 78.5395 353.716 79.766L354.288 79.8216C354.039 82.3769 353.541 84.8592 352.818 87.2438L352.269 87.0773C351.541 89.4813 350.58 91.7847 349.415 93.9615L349.921 94.2326C348.723 96.4693 347.311 98.5743 345.712 100.52L345.268 100.155C343.687 102.08 341.921 103.846 339.997 105.427L340.362 105.87C338.416 107.469 336.311 108.881 334.074 110.079L333.803 109.573C331.627 110.739 329.323 111.699 326.919 112.427L327.086 112.977C324.701 113.699 322.219 114.197 319.663 114.446L319.608 113.874C318.381 113.994 317.138 114.055 315.879 114.055C314.621 114.055 313.377 113.994 312.151 113.874L312.095 114.446C309.54 114.197 307.058 113.699 304.673 112.977L304.84 112.427C302.436 111.699 300.132 110.739 297.955 109.573L297.684 110.079C295.448 108.881 293.343 107.469 291.397 105.87L291.761 105.427C289.837 103.846 288.071 102.08 286.49 100.155L286.047 100.52C284.448 98.5743 283.036 96.4694 281.838 94.2326L282.344 93.9615C281.178 91.7847 280.218 89.4813 279.49 87.0773L278.94 87.2438Z" stroke="#E3E3E3" stroke-opacity="0.4" stroke-width="1.14851" stroke-dasharray="8.04 8.04"/>
<circle cx="191.673" cy="76.0375" r="38.0171" transform="rotate(180 191.673 76.0375)" stroke="#E3E3E3" stroke-opacity="0.4" stroke-width="1.14851" stroke-dasharray="8.04 8.04"/>
<circle cx="67.4678" cy="76.4428" r="38.0171" transform="rotate(180 67.4678 76.4428)" stroke="#E3E3E3" stroke-opacity="0.4" stroke-width="1.14851" stroke-dasharray="8.04 8.04"/>
<path d="M-107 236.257L9.60267 236.257C66.4537 236.257 81.5367 175.977 50.7907 144.807L29.3265 123.342C22.9453 116.285 6.70209 101.011 6.70208 75.7057C6.70208 45.0978 28.6159 15.3819 64.8917 15.3819C101.168 15.3819 127.398 45.9337 127.398 79.3143" stroke="url(#paint0_radial_6586_27987)" stroke-width="22.5383"/>
<path d="M519 251.369C483.013 251.369 421.606 252.518 385.773 252.518C343.278 252.518 312.874 210.494 337.567 167.999L371.792 107.195C378.468 92.6256 380.386 84.6993 380.386 74.9275C380.386 35.0389 345.038 12.0139 317.797 12.0139C297.153 11.54 255.866 23.4592 255.866 74.9275C255.866 126.396 212.48 142.159 189.941 142.159" stroke="url(#paint1_radial_6586_27987)" stroke-width="22.5383"/>
<defs>
<radialGradient id="paint0_radial_6586_27987" cx="0" cy="0" r="1" gradientUnits="userSpaceOnUse" gradientTransform="translate(132.469 82.4333) rotate(-160.052) scale(310.499 117.581)">
<stop stop-color="#AFD500"/>
<stop offset="0.0001" stop-color="#AFD500"/>
<stop offset="1" stop-color="#1C1C1E" stop-opacity="0"/>
</radialGradient>
<radialGradient id="paint1_radial_6586_27987" cx="0" cy="0" r="1" gradientUnits="userSpaceOnUse" gradientTransform="translate(197.83 127.509) rotate(-35.1495) scale(319.06 118.323)">
<stop stop-color="#AFD500"/>
<stop offset="1" stop-color="#1C1C1E" stop-opacity="0"/>
</radialGradient>
</defs>
</svg>
