<svg width="367" height="109" viewBox="0 0 367 109" fill="none" xmlns="http://www.w3.org/2000/svg">
<g filter="url(#filter0_d_2145_9366)">
<rect x="26.5215" y="48.0144" width="314.232" height="58.9855" rx="11" fill="#181818"/>
</g>
<g filter="url(#filter1_d_2145_9366)">
<rect x="11.5078" y="36.6521" width="343.188" height="58.9855" rx="11" fill="#1F1F1F"/>
</g>
<g filter="url(#filter2_d_2145_9366)">
<rect x="4" y="6" width="359" height="75" rx="20" fill="#2D2D2D"/>
</g>
<path d="M311.285 29V21.1099H311.184L308.854 22.7983V21.5923L311.292 19.8403H312.428V29H311.285ZM315.003 29V22.1572H316.108V23.1982H316.209C316.514 22.4619 317.162 22.0366 318.057 22.0366C318.983 22.0366 319.631 22.5254 319.948 23.2363H320.05C320.418 22.5127 321.199 22.0366 322.144 22.0366C323.541 22.0366 324.322 22.8364 324.322 24.271V29H323.217V24.5249C323.217 23.5156 322.754 23.0142 321.789 23.0142C320.837 23.0142 320.208 23.7314 320.208 24.6011V29H319.104V24.3535C319.104 23.541 318.545 23.0142 317.682 23.0142C316.787 23.0142 316.108 23.7949 316.108 24.7598V29H315.003ZM331.694 29.1206C330.393 29.1206 329.409 28.3335 329.409 27.0894V27.0767C329.409 25.8579 330.31 25.1533 331.904 25.0581L333.865 24.9375V24.3154C333.865 23.4712 333.351 23.0142 332.329 23.0142C331.51 23.0142 330.97 23.3188 330.793 23.8521L330.786 23.8711H329.682L329.688 23.833C329.866 22.7603 330.907 22.0366 332.367 22.0366C334.036 22.0366 334.969 22.8936 334.969 24.3154V29H333.865V27.9907H333.763C333.332 28.7207 332.614 29.1206 331.694 29.1206ZM330.539 27.064C330.539 27.7559 331.129 28.1621 331.923 28.1621C333.046 28.1621 333.865 27.4258 333.865 26.4482V25.8262L332.037 25.9404C330.996 26.0039 330.539 26.3721 330.539 27.0513V27.064ZM339.728 31.4121C338.078 31.4121 337.024 30.6694 336.853 29.5459L336.866 29.5396H338.008L338.014 29.5459C338.135 30.0664 338.744 30.4346 339.728 30.4346C340.953 30.4346 341.683 29.8569 341.683 28.8477V27.4639H341.582C341.15 28.2192 340.376 28.6445 339.436 28.6445C337.665 28.6445 336.567 27.2734 336.567 25.3564V25.3438C336.567 23.4268 337.672 22.0366 339.462 22.0366C340.427 22.0366 341.176 22.5127 341.595 23.2871H341.671V22.1572H342.775V28.9048C342.775 30.4346 341.595 31.4121 339.728 31.4121ZM339.678 27.667C340.947 27.667 341.709 26.7148 341.709 25.3564V25.3438C341.709 23.9854 340.941 23.0142 339.678 23.0142C338.408 23.0142 337.697 23.9854 337.697 25.3438V25.3564C337.697 26.7148 338.408 27.667 339.678 27.667ZM347.566 29.1206C345.617 29.1206 344.411 27.7749 344.411 25.585V25.5723C344.411 23.376 345.617 22.0366 347.566 22.0366C349.515 22.0366 350.721 23.376 350.721 25.5723V25.585C350.721 27.7749 349.515 29.1206 347.566 29.1206ZM347.566 28.1431C348.861 28.1431 349.591 27.1973 349.591 25.585V25.5723C349.591 23.9536 348.861 23.0142 347.566 23.0142C346.271 23.0142 345.541 23.9536 345.541 25.5723V25.585C345.541 27.1973 346.271 28.1431 347.566 28.1431Z" fill="#E3E3E3" fill-opacity="0.6"/>
<path d="M82.2637 30.2461C79.7686 30.2461 78.21 28.7764 78.21 26.6025V20.1357H79.9736V26.459C79.9736 27.8193 80.8008 28.7217 82.2705 28.7217C83.7334 28.7217 84.5537 27.8193 84.5537 26.459V20.1357H86.3174V26.6025C86.3174 28.7764 84.7725 30.2461 82.2637 30.2461ZM88.2664 30V22.5283H89.9686V23.6699H90.0848C90.4402 22.8701 91.158 22.3848 92.2381 22.3848C93.9061 22.3848 94.8152 23.3896 94.8152 25.167V30H93.1131V25.5635C93.1131 24.4014 92.6414 23.8135 91.6092 23.8135C90.5975 23.8135 89.9686 24.5244 89.9686 25.6455V30H88.2664ZM97.4 21.2773C96.8395 21.2773 96.3814 20.833 96.3814 20.2725C96.3814 19.7188 96.8395 19.2676 97.4 19.2676C97.9537 19.2676 98.4117 19.7188 98.4117 20.2725C98.4117 20.833 97.9537 21.2773 97.4 21.2773ZM96.5455 30V22.5283H98.2477V30H96.5455ZM102.863 30.1504C100.962 30.1504 99.8139 29.2754 99.6703 28.0107V27.9971H101.359L101.366 28.0107C101.543 28.5303 102.042 28.8926 102.89 28.8926C103.738 28.8926 104.326 28.5098 104.326 27.9492V27.9355C104.326 27.498 103.997 27.2109 103.177 27.0264L101.967 26.7529C100.545 26.4385 99.8686 25.7686 99.8686 24.668V24.6611C99.8686 23.3145 101.099 22.3848 102.863 22.3848C104.681 22.3848 105.768 23.2871 105.877 24.4971V24.5107H104.278L104.271 24.4902C104.148 24.0186 103.656 23.6357 102.856 23.6357C102.097 23.6357 101.55 24.0049 101.55 24.5654V24.5723C101.55 25.0098 101.865 25.2764 102.671 25.4609L103.881 25.7275C105.344 26.0557 106.035 26.6777 106.035 27.7646V27.7783C106.035 29.2002 104.702 30.1504 102.863 30.1504ZM108.667 30L106.644 22.5283H108.353L109.597 28.1406H109.713L111.149 22.5283H112.769L114.218 28.1406H114.334L115.571 22.5283H117.26L115.237 30H113.452L111.996 24.5859H111.88L110.431 30H108.667ZM120.275 30.123C118.854 30.123 117.821 29.248 117.821 27.8877V27.874C117.821 26.541 118.84 25.7617 120.658 25.6523L122.579 25.5361V24.8936C122.579 24.1484 122.094 23.7383 121.178 23.7383C120.398 23.7383 119.893 24.0186 119.722 24.5107L119.715 24.5381H118.108L118.115 24.4766C118.279 23.2188 119.482 22.3848 121.26 22.3848C123.181 22.3848 124.261 23.3145 124.261 24.8936V30H122.579V28.9746H122.463C122.053 29.6992 121.26 30.123 120.275 30.123ZM119.503 27.8057C119.503 28.4414 120.043 28.8174 120.795 28.8174C121.82 28.8174 122.579 28.1475 122.579 27.2588V26.6572L120.897 26.7666C119.947 26.8281 119.503 27.1768 119.503 27.792V27.8057ZM126.005 32.4814V22.5283H127.707V23.6973H127.823C128.233 22.8838 129.047 22.4053 130.093 22.4053C131.966 22.4053 133.162 23.8955 133.162 26.2607V26.2744C133.162 28.6533 131.986 30.123 130.093 30.123C129.067 30.123 128.213 29.6172 127.823 28.8105H127.707V32.4814H126.005ZM129.559 28.6875C130.721 28.6875 131.426 27.7715 131.426 26.2744V26.2607C131.426 24.7568 130.721 23.8408 129.559 23.8408C128.404 23.8408 127.686 24.7568 127.686 26.2539V26.2676C127.686 27.7646 128.404 28.6875 129.559 28.6875ZM135.842 25.0576C135.22 25.0576 134.755 24.5859 134.755 23.9844C134.755 23.376 135.22 22.9043 135.842 22.9043C136.471 22.9043 136.929 23.376 136.929 23.9844C136.929 24.5859 136.471 25.0576 135.842 25.0576ZM135.842 30.1367C135.22 30.1367 134.755 29.6582 134.755 29.0566C134.755 28.4482 135.22 27.9766 135.842 27.9766C136.471 27.9766 136.929 28.4482 136.929 29.0566C136.929 29.6582 136.471 30.1367 135.842 30.1367ZM145.175 30L141.764 20.1357H143.705L146.146 27.9629H146.262L148.702 20.1357H150.651L147.239 30H145.175ZM154.322 30.1504C152.08 30.1504 150.727 28.6875 150.727 26.2676V26.2539C150.727 23.8545 152.101 22.3848 154.322 22.3848C156.551 22.3848 157.918 23.8477 157.918 26.2539V26.2676C157.918 28.6875 156.558 30.1504 154.322 30.1504ZM154.322 28.7695C155.505 28.7695 156.175 27.8467 156.175 26.2744V26.2607C156.175 24.6885 155.498 23.7588 154.322 23.7588C153.14 23.7588 152.463 24.6885 152.463 26.2607V26.2744C152.463 27.8467 153.14 28.7695 154.322 28.7695ZM162.266 30.0342C160.551 30.0342 159.846 29.46 159.846 28.0176V23.8477H158.684V22.5283H159.846V20.6963H161.576V22.5283H163.155V23.8477H161.576V27.6143C161.576 28.3594 161.87 28.6738 162.581 28.6738C162.82 28.6738 162.95 28.667 163.155 28.6465V29.959C162.909 30.0068 162.595 30.0342 162.266 30.0342ZM167.681 30.1504C165.46 30.1504 164.113 28.6602 164.113 26.2812V26.2744C164.113 23.9229 165.473 22.3848 167.599 22.3848C169.725 22.3848 171.038 23.875 171.038 26.1309V26.6914H165.815C165.836 28.0312 166.56 28.8105 167.715 28.8105C168.638 28.8105 169.165 28.3457 169.329 28.0039L169.349 27.9561H170.969L170.949 28.0176C170.71 28.9814 169.712 30.1504 167.681 30.1504ZM167.62 23.7178C166.67 23.7178 165.959 24.3604 165.829 25.5498H169.377C169.26 24.3262 168.57 23.7178 167.62 23.7178ZM176.419 30V23.8477H175.196V22.5283H176.419V21.79C176.419 20.2998 177.178 19.5684 178.839 19.5684C179.201 19.5684 179.509 19.5889 179.782 19.6367V20.8262C179.653 20.8057 179.441 20.792 179.201 20.792C178.402 20.792 178.094 21.1748 178.094 21.8857V22.5283H179.714V23.8477H178.121V30H176.419ZM181.93 21.2773C181.369 21.2773 180.911 20.833 180.911 20.2725C180.911 19.7188 181.369 19.2676 181.93 19.2676C182.483 19.2676 182.941 19.7188 182.941 20.2725C182.941 20.833 182.483 21.2773 181.93 21.2773ZM181.075 30V22.5283H182.777V30H181.075ZM184.569 30V22.5283H186.271V23.6699H186.387C186.743 22.8701 187.461 22.3848 188.541 22.3848C190.209 22.3848 191.118 23.3896 191.118 25.167V30H189.416V25.5635C189.416 24.4014 188.944 23.8135 187.912 23.8135C186.9 23.8135 186.271 24.5244 186.271 25.6455V30H184.569ZM193.703 21.2773C193.142 21.2773 192.684 20.833 192.684 20.2725C192.684 19.7188 193.142 19.2676 193.703 19.2676C194.256 19.2676 194.714 19.7188 194.714 20.2725C194.714 20.833 194.256 21.2773 193.703 21.2773ZM192.848 30V22.5283H194.55V30H192.848ZM199.165 30.1504C197.265 30.1504 196.117 29.2754 195.973 28.0107V27.9971H197.662L197.668 28.0107C197.846 28.5303 198.345 28.8926 199.193 28.8926C200.04 28.8926 200.628 28.5098 200.628 27.9492V27.9355C200.628 27.498 200.3 27.2109 199.48 27.0264L198.27 26.7529C196.848 26.4385 196.171 25.7686 196.171 24.668V24.6611C196.171 23.3145 197.402 22.3848 199.165 22.3848C200.984 22.3848 202.071 23.2871 202.18 24.4971V24.5107H200.58L200.574 24.4902C200.451 24.0186 199.958 23.6357 199.159 23.6357C198.4 23.6357 197.853 24.0049 197.853 24.5654V24.5723C197.853 25.0098 198.167 25.2764 198.974 25.4609L200.184 25.7275C201.647 26.0557 202.337 26.6777 202.337 27.7646V27.7783C202.337 29.2002 201.004 30.1504 199.165 30.1504ZM203.821 30V19.6367H205.524V23.6699H205.64C205.995 22.8701 206.713 22.3848 207.793 22.3848C209.461 22.3848 210.37 23.3896 210.37 25.167V30H208.668V25.5635C208.668 24.4014 208.196 23.8135 207.164 23.8135C206.153 23.8135 205.524 24.5244 205.524 25.6455V30H203.821ZM215.279 30.1504C213.058 30.1504 211.711 28.6602 211.711 26.2812V26.2744C211.711 23.9229 213.071 22.3848 215.197 22.3848C217.323 22.3848 218.636 23.875 218.636 26.1309V26.6914H213.413C213.434 28.0312 214.158 28.8105 215.313 28.8105C216.236 28.8105 216.763 28.3457 216.927 28.0039L216.947 27.9561H218.567L218.547 28.0176C218.308 28.9814 217.31 30.1504 215.279 30.1504ZM215.218 23.7178C214.268 23.7178 213.557 24.3604 213.427 25.5498H216.975C216.858 24.3262 216.168 23.7178 215.218 23.7178ZM222.861 30.1504C220.961 30.1504 219.812 29.2754 219.669 28.0107V27.9971H221.357L221.364 28.0107C221.542 28.5303 222.041 28.8926 222.888 28.8926C223.736 28.8926 224.324 28.5098 224.324 27.9492V27.9355C224.324 27.498 223.996 27.2109 223.176 27.0264L221.966 26.7529C220.544 26.4385 219.867 25.7686 219.867 24.668V24.6611C219.867 23.3145 221.097 22.3848 222.861 22.3848C224.679 22.3848 225.766 23.2871 225.876 24.4971V24.5107H224.276L224.269 24.4902C224.146 24.0186 223.654 23.6357 222.854 23.6357C222.096 23.6357 221.549 24.0049 221.549 24.5654V24.5723C221.549 25.0098 221.863 25.2764 222.67 25.4609L223.88 25.7275C225.343 26.0557 226.033 26.6777 226.033 27.7646V27.7783C226.033 29.2002 224.7 30.1504 222.861 30.1504ZM233.704 30.1504C231.804 30.1504 230.656 29.2754 230.512 28.0107V27.9971H232.201L232.207 28.0107C232.385 28.5303 232.884 28.8926 233.732 28.8926C234.579 28.8926 235.167 28.5098 235.167 27.9492V27.9355C235.167 27.498 234.839 27.2109 234.019 27.0264L232.809 26.7529C231.387 26.4385 230.71 25.7686 230.71 24.668V24.6611C230.71 23.3145 231.941 22.3848 233.704 22.3848C235.523 22.3848 236.61 23.2871 236.719 24.4971V24.5107H235.12L235.113 24.4902C234.99 24.0186 234.497 23.6357 233.698 23.6357C232.939 23.6357 232.392 24.0049 232.392 24.5654V24.5723C232.392 25.0098 232.706 25.2764 233.513 25.4609L234.723 25.7275C236.186 26.0557 236.876 26.6777 236.876 27.7646V27.7783C236.876 29.2002 235.543 30.1504 233.704 30.1504ZM241.519 30.1504C239.277 30.1504 237.923 28.6875 237.923 26.2676V26.2539C237.923 23.8545 239.297 22.3848 241.519 22.3848C243.747 22.3848 245.114 23.8477 245.114 26.2539V26.2676C245.114 28.6875 243.754 30.1504 241.519 30.1504ZM241.519 28.7695C242.701 28.7695 243.371 27.8467 243.371 26.2744V26.2607C243.371 24.6885 242.695 23.7588 241.519 23.7588C240.336 23.7588 239.659 24.6885 239.659 26.2607V26.2744C239.659 27.8467 240.336 28.7695 241.519 28.7695ZM249.75 30.1504C247.508 30.1504 246.154 28.6875 246.154 26.2676V26.2539C246.154 23.8545 247.528 22.3848 249.75 22.3848C251.979 22.3848 253.346 23.8477 253.346 26.2539V26.2676C253.346 28.6875 251.985 30.1504 249.75 30.1504ZM249.75 28.7695C250.933 28.7695 251.603 27.8467 251.603 26.2744V26.2607C251.603 24.6885 250.926 23.7588 249.75 23.7588C248.567 23.7588 247.891 24.6885 247.891 26.2607V26.2744C247.891 27.8467 248.567 28.7695 249.75 28.7695ZM254.755 30V22.5283H256.457V23.6699H256.573C256.929 22.8701 257.646 22.3848 258.726 22.3848C260.394 22.3848 261.304 23.3896 261.304 25.167V30H259.601V25.5635C259.601 24.4014 259.13 23.8135 258.097 23.8135C257.086 23.8135 256.457 24.5244 256.457 25.6455V30H254.755Z" fill="#E3E3E3"/>
<path d="M77.438 49L80.8149 39.8403H81.9448L85.3218 49H84.1221L83.2017 46.3784H79.5581L78.6377 49H77.438ZM81.3291 41.3193L79.8945 45.4072H82.8652L81.4307 41.3193H81.3291ZM89.1285 49.1206C87.2116 49.1206 85.9865 47.7305 85.9865 45.5596V45.5469C85.9865 43.4204 87.2052 42.0366 89.1222 42.0366C90.7853 42.0366 91.7819 42.9951 91.985 44.2139L91.9913 44.252H90.8932L90.8868 44.2329C90.7155 43.5601 90.1061 43.0142 89.1222 43.0142C87.8907 43.0142 87.1163 44.0044 87.1163 45.5469V45.5596C87.1163 47.1338 87.9034 48.1431 89.1222 48.1431C90.0426 48.1431 90.6266 47.7368 90.8805 46.9751L90.8932 46.937L91.985 46.9307L91.9723 47.0005C91.693 48.2383 90.7726 49.1206 89.1285 49.1206ZM96.0837 49.0508C94.6746 49.0508 94.0842 48.5303 94.0842 47.2227V43.0713H93.0051V42.1572H94.0842V40.3862H95.2268V42.1572H96.7249V43.0713H95.2268V46.9434C95.2268 47.7495 95.5061 48.0732 96.217 48.0732C96.4138 48.0732 96.5217 48.0669 96.7249 48.0479V48.9873C96.509 49.0254 96.2996 49.0508 96.0837 49.0508ZM98.8812 40.8369C98.4623 40.8369 98.1195 40.4941 98.1195 40.0752C98.1195 39.6562 98.4623 39.3135 98.8812 39.3135C99.3002 39.3135 99.643 39.6562 99.643 40.0752C99.643 40.4941 99.3002 40.8369 98.8812 40.8369ZM98.3226 49V42.1572H99.4271V49H98.3226ZM103.367 49L100.834 42.1572H102.002L103.875 47.7939H103.977L105.849 42.1572H107.017L104.484 49H103.367ZM110.024 49.1206C108.723 49.1206 107.739 48.3335 107.739 47.0894V47.0767C107.739 45.8579 108.64 45.1533 110.234 45.0581L112.195 44.9375V44.3154C112.195 43.4712 111.681 43.0142 110.659 43.0142C109.84 43.0142 109.3 43.3188 109.123 43.8521L109.116 43.8711H108.012L108.018 43.833C108.196 42.7603 109.237 42.0366 110.697 42.0366C112.366 42.0366 113.299 42.8936 113.299 44.3154V49H112.195V47.9907H112.093C111.662 48.7207 110.944 49.1206 110.024 49.1206ZM108.869 47.064C108.869 47.7559 109.459 48.1621 110.253 48.1621C111.376 48.1621 112.195 47.4258 112.195 46.4482V45.8262L110.367 45.9404C109.326 46.0039 108.869 46.3721 108.869 47.0513V47.064ZM117.671 49.0508C116.262 49.0508 115.672 48.5303 115.672 47.2227V43.0713H114.593V42.1572H115.672V40.3862H116.814V42.1572H118.312V43.0713H116.814V46.9434C116.814 47.7495 117.094 48.0732 117.804 48.0732C118.001 48.0732 118.109 48.0669 118.312 48.0479V48.9873C118.096 49.0254 117.887 49.0508 117.671 49.0508ZM122.576 49.1206C120.621 49.1206 119.44 47.7495 119.44 45.604V45.5977C119.44 43.4839 120.646 42.0366 122.506 42.0366C124.366 42.0366 125.496 43.4204 125.496 45.4644V45.896H120.57C120.602 47.3115 121.383 48.1367 122.601 48.1367C123.528 48.1367 124.1 47.6987 124.284 47.2861L124.309 47.229H125.413L125.401 47.2798C125.166 48.2065 124.188 49.1206 122.576 49.1206ZM122.5 43.0205C121.484 43.0205 120.71 43.7124 120.589 45.0137H124.372C124.258 43.6616 123.509 43.0205 122.5 43.0205ZM134.481 49.2158C132.208 49.2158 130.837 47.8447 130.837 45.8516V39.8403H131.98V45.7754C131.98 47.1846 132.894 48.1621 134.481 48.1621C136.068 48.1621 136.969 47.1846 136.969 45.7754V39.8403H138.111V45.8516C138.111 47.8447 136.753 49.2158 134.481 49.2158ZM140.217 49V42.1572H141.322V43.1855H141.423C141.766 42.4619 142.407 42.0366 143.416 42.0366C144.952 42.0366 145.809 42.9443 145.809 44.5693V49H144.705V44.8359C144.705 43.6045 144.197 43.0142 143.105 43.0142C142.013 43.0142 141.322 43.7505 141.322 44.9502V49H140.217ZM148.315 40.8369C147.896 40.8369 147.553 40.4941 147.553 40.0752C147.553 39.6562 147.896 39.3135 148.315 39.3135C148.734 39.3135 149.077 39.6562 149.077 40.0752C149.077 40.4941 148.734 40.8369 148.315 40.8369ZM147.756 49V42.1572H148.861V49H147.756ZM153.213 49.1206C151.69 49.1206 150.643 48.3843 150.516 47.2544H151.646C151.83 47.8257 152.376 48.2002 153.252 48.2002C154.172 48.2002 154.826 47.7622 154.826 47.1401V47.1274C154.826 46.6641 154.477 46.3403 153.632 46.1372L152.572 45.8833C151.29 45.5786 150.712 45.02 150.712 44.0361V44.0298C150.712 42.8936 151.804 42.0366 153.258 42.0366C154.692 42.0366 155.689 42.7539 155.841 43.8711H154.756C154.61 43.3315 154.077 42.957 153.252 42.957C152.439 42.957 151.842 43.376 151.842 43.979V43.9917C151.842 44.4551 152.185 44.7471 152.991 44.9438L154.045 45.1978C155.334 45.5088 155.956 46.0674 155.956 47.0449V47.0576C155.956 48.2764 154.769 49.1206 153.213 49.1206ZM158.721 49L156.804 42.1572H157.909L159.255 47.6289H159.356L160.886 42.1572H161.933L163.463 47.6289H163.565L164.91 42.1572H166.008L164.091 49H162.981L161.451 43.7061H161.349L159.826 49H158.721ZM169.079 49.1206C167.778 49.1206 166.794 48.3335 166.794 47.0894V47.0767C166.794 45.8579 167.695 45.1533 169.288 45.0581L171.25 44.9375V44.3154C171.25 43.4712 170.736 43.0142 169.714 43.0142C168.895 43.0142 168.355 43.3188 168.178 43.8521L168.171 43.8711H167.067L167.073 43.833C167.251 42.7603 168.292 42.0366 169.752 42.0366C171.421 42.0366 172.354 42.8936 172.354 44.3154V49H171.25V47.9907H171.148C170.717 48.7207 169.999 49.1206 169.079 49.1206ZM167.924 47.064C167.924 47.7559 168.514 48.1621 169.307 48.1621C170.431 48.1621 171.25 47.4258 171.25 46.4482V45.8262L169.422 45.9404C168.381 46.0039 167.924 46.3721 167.924 47.0513V47.064ZM174.295 51.2852V42.1572H175.399V43.249H175.501C175.92 42.4873 176.682 42.0366 177.634 42.0366C179.367 42.0366 180.503 43.4395 180.503 45.5723V45.585C180.503 47.7305 179.373 49.1206 177.634 49.1206C176.694 49.1206 175.875 48.6509 175.501 47.9209H175.399V51.2852H174.295ZM177.38 48.1431C178.63 48.1431 179.373 47.1782 179.373 45.585V45.5723C179.373 43.979 178.63 43.0142 177.38 43.0142C176.136 43.0142 175.374 43.9917 175.374 45.5723V45.585C175.374 47.1655 176.136 48.1431 177.38 48.1431ZM185.869 49V39.8403H189.322C191.043 39.8403 192.261 41.0273 192.261 42.7666V42.7793C192.261 44.5186 191.043 45.731 189.322 45.731H187.012V49H185.869ZM189.03 40.856H187.012V44.7153H189.03C190.338 44.7153 191.093 43.998 191.093 42.792V42.7793C191.093 41.5732 190.338 40.856 189.03 40.856ZM193.916 49V42.1572H195.021V43.1729H195.122C195.383 42.4556 196.024 42.0366 196.95 42.0366C197.16 42.0366 197.395 42.062 197.503 42.0811V43.1538C197.274 43.1157 197.065 43.0903 196.824 43.0903C195.77 43.0903 195.021 43.7568 195.021 44.7598V49H193.916ZM201.411 49.1206C199.462 49.1206 198.256 47.7749 198.256 45.585V45.5723C198.256 43.376 199.462 42.0366 201.411 42.0366C203.36 42.0366 204.566 43.376 204.566 45.5723V45.585C204.566 47.7749 203.36 49.1206 201.411 49.1206ZM201.411 48.1431C202.706 48.1431 203.436 47.1973 203.436 45.585V45.5723C203.436 43.9536 202.706 43.0142 201.411 43.0142C200.116 43.0142 199.386 43.9536 199.386 45.5723V45.585C199.386 47.1973 200.116 48.1431 201.411 48.1431ZM208.633 49.0508C207.224 49.0508 206.633 48.5303 206.633 47.2227V43.0713H205.554V42.1572H206.633V40.3862H207.776V42.1572H209.274V43.0713H207.776V46.9434C207.776 47.7495 208.055 48.0732 208.766 48.0732C208.963 48.0732 209.071 48.0669 209.274 48.0479V48.9873C209.058 49.0254 208.849 49.0508 208.633 49.0508ZM213.557 49.1206C211.608 49.1206 210.402 47.7749 210.402 45.585V45.5723C210.402 43.376 211.608 42.0366 213.557 42.0366C215.506 42.0366 216.712 43.376 216.712 45.5723V45.585C216.712 47.7749 215.506 49.1206 213.557 49.1206ZM213.557 48.1431C214.852 48.1431 215.582 47.1973 215.582 45.585V45.5723C215.582 43.9536 214.852 43.0142 213.557 43.0142C212.262 43.0142 211.532 43.9536 211.532 45.5723V45.585C211.532 47.1973 212.262 48.1431 213.557 48.1431ZM221.147 49.1206C219.23 49.1206 218.005 47.7305 218.005 45.5596V45.5469C218.005 43.4204 219.223 42.0366 221.14 42.0366C222.804 42.0366 223.8 42.9951 224.003 44.2139L224.01 44.252H222.911L222.905 44.2329C222.734 43.5601 222.124 43.0142 221.14 43.0142C219.909 43.0142 219.135 44.0044 219.135 45.5469V45.5596C219.135 47.1338 219.922 48.1431 221.14 48.1431C222.061 48.1431 222.645 47.7368 222.899 46.9751L222.911 46.937L224.003 46.9307L223.991 47.0005C223.711 48.2383 222.791 49.1206 221.147 49.1206ZM228.356 49.1206C226.407 49.1206 225.201 47.7749 225.201 45.585V45.5723C225.201 43.376 226.407 42.0366 228.356 42.0366C230.305 42.0366 231.511 43.376 231.511 45.5723V45.585C231.511 47.7749 230.305 49.1206 228.356 49.1206ZM228.356 48.1431C229.651 48.1431 230.381 47.1973 230.381 45.585V45.5723C230.381 43.9536 229.651 43.0142 228.356 43.0142C227.061 43.0142 226.331 43.9536 226.331 45.5723V45.585C226.331 47.1973 227.061 48.1431 228.356 48.1431ZM233.21 49V39.4404H234.315V49H233.21ZM81.9639 67.2158C79.4312 67.2158 77.8125 65.3496 77.8125 62.4233V62.4106C77.8125 59.5225 79.4565 57.6245 81.9639 57.6245C83.9951 57.6245 85.4233 58.7671 85.7852 60.5063L85.7979 60.5698H84.6426L84.6235 60.5063C84.249 59.3257 83.3286 58.6782 81.9639 58.6782C80.1484 58.6782 78.9805 60.1382 78.9805 62.4106V62.4233C78.9805 64.7275 80.1294 66.1621 81.9702 66.1621C83.6079 66.1621 84.7124 65.1147 84.7124 63.5659V63.3438H82.1416V62.3408H85.855V63.458C85.855 65.7178 84.3062 67.2158 81.9639 67.2158ZM90.4742 67.1206C88.5255 67.1206 87.3195 65.7749 87.3195 63.585V63.5723C87.3195 61.376 88.5255 60.0366 90.4742 60.0366C92.423 60.0366 93.629 61.376 93.629 63.5723V63.585C93.629 65.7749 92.423 67.1206 90.4742 67.1206ZM90.4742 66.1431C91.7692 66.1431 92.4991 65.1973 92.4991 63.585V63.5723C92.4991 61.9536 91.7692 61.0142 90.4742 61.0142C89.1793 61.0142 88.4493 61.9536 88.4493 63.5723V63.585C88.4493 65.1973 89.1793 66.1431 90.4742 66.1431ZM96.947 67L94.4143 60.1572H95.5823L97.4548 65.7939H97.5564L99.429 60.1572H100.597L98.0642 67H96.947ZM104.518 67.1206C102.563 67.1206 101.382 65.7495 101.382 63.604V63.5977C101.382 61.4839 102.588 60.0366 104.448 60.0366C106.308 60.0366 107.438 61.4204 107.438 63.4644V63.896H102.512C102.544 65.3115 103.325 66.1367 104.543 66.1367C105.47 66.1367 106.041 65.6987 106.225 65.2861L106.251 65.229H107.355L107.343 65.2798C107.108 66.2065 106.13 67.1206 104.518 67.1206ZM104.442 61.0205C103.426 61.0205 102.652 61.7124 102.531 63.0137H106.314C106.2 61.6616 105.451 61.0205 104.442 61.0205ZM109.074 67V60.1572H110.178V61.1729H110.28C110.54 60.4556 111.181 60.0366 112.108 60.0366C112.317 60.0366 112.552 60.062 112.66 60.0811V61.1538C112.432 61.1157 112.222 61.0903 111.981 61.0903C110.927 61.0903 110.178 61.7568 110.178 62.7598V67H109.074ZM114.074 67V60.1572H115.178V61.1855H115.28C115.623 60.4619 116.264 60.0366 117.273 60.0366C118.809 60.0366 119.666 60.9443 119.666 62.5693V67H118.562V62.8359C118.562 61.6045 118.054 61.0142 116.962 61.0142C115.87 61.0142 115.178 61.7505 115.178 62.9502V67H114.074ZM123.467 67.1206C122.165 67.1206 121.181 66.3335 121.181 65.0894V65.0767C121.181 63.8579 122.083 63.1533 123.676 63.0581L125.637 62.9375V62.3154C125.637 61.4712 125.123 61.0142 124.101 61.0142C123.282 61.0142 122.743 61.3188 122.565 61.8521L122.559 61.8711H121.454L121.461 61.833C121.638 60.7603 122.679 60.0366 124.139 60.0366C125.809 60.0366 126.742 60.8936 126.742 62.3154V67H125.637V65.9907H125.536C125.104 66.7207 124.387 67.1206 123.467 67.1206ZM122.311 65.064C122.311 65.7559 122.902 66.1621 123.695 66.1621C124.819 66.1621 125.637 65.4258 125.637 64.4482V63.8262L123.809 63.9404C122.768 64.0039 122.311 64.3721 122.311 65.0513V65.064ZM128.683 67V60.1572H129.787V61.1855H129.889C130.231 60.4619 130.872 60.0366 131.882 60.0366C133.418 60.0366 134.275 60.9443 134.275 62.5693V67H133.17V62.8359C133.17 61.6045 132.662 61.0142 131.571 61.0142C130.479 61.0142 129.787 61.7505 129.787 62.9502V67H128.683ZM138.996 67.1206C137.079 67.1206 135.854 65.7305 135.854 63.5596V63.5469C135.854 61.4204 137.072 60.0366 138.989 60.0366C140.652 60.0366 141.649 60.9951 141.852 62.2139L141.858 62.252H140.76L140.754 62.2329C140.583 61.5601 139.973 61.0142 138.989 61.0142C137.758 61.0142 136.983 62.0044 136.983 63.5469V63.5596C136.983 65.1338 137.771 66.1431 138.989 66.1431C139.91 66.1431 140.494 65.7368 140.748 64.9751L140.76 64.937L141.852 64.9307L141.839 65.0005C141.56 66.2383 140.64 67.1206 138.996 67.1206ZM146.186 67.1206C144.231 67.1206 143.05 65.7495 143.05 63.604V63.5977C143.05 61.4839 144.256 60.0366 146.116 60.0366C147.976 60.0366 149.106 61.4204 149.106 63.4644V63.896H144.18C144.212 65.3115 144.992 66.1367 146.211 66.1367C147.138 66.1367 147.709 65.6987 147.893 65.2861L147.919 65.229H149.023L149.01 65.2798C148.776 66.2065 147.798 67.1206 146.186 67.1206ZM146.11 61.0205C145.094 61.0205 144.319 61.7124 144.199 63.0137H147.982C147.868 61.6616 147.119 61.0205 146.11 61.0205Z" fill="#E3E3E3" fill-opacity="0.6"/>
<g filter="url(#filter3_d_2145_9366)">
<rect x="19" y="21" width="44" height="44" rx="9.42857" fill="#121212"/>
</g>
<circle cx="30.0712" cy="39.5134" r="2.82037" transform="rotate(-180 30.0712 39.5134)" fill="#D4FF27"/>
<path d="M27.2779 46.5651C27.2779 45.4013 28.1773 44.1837 29.5276 43.9429C30.878 43.7022 36.9276 42.4845 37.6838 42.3225C38.44 42.1604 40.0479 41.5511 40.0479 39.5141C40.0479 37.8846 39.0338 37.0831 38.481 36.6154C37.802 36.0409 36.3334 34.7065 35.6606 34.1084C34.8326 33.3723 34.5638 32.924 34.5638 31.7581C34.5638 30.2696 35.9524 29.2511 36.6574 29.2511L45.0619 29.2511C45.9237 29.2511 47.4122 30.2696 47.4122 31.7581C47.4122 32.9489 46.9742 33.6847 46.5504 34.1084C45.9498 34.6046 44.5292 35.8006 43.6517 36.6154C42.5549 37.6339 41.9281 38.1039 41.9281 39.5141C41.9281 40.9243 43.1816 42.0995 44.5135 42.0995C45.579 42.0995 46.4721 41.4727 46.7855 41.1594C47.3339 40.5326 48.5717 39.1067 49.1358 38.4173C49.8409 37.5555 50.7046 36.6154 52.0364 36.6154C53.2757 36.6154 54.6982 37.616 54.6982 39.0243L54.6982 54.0861C54.6982 55.0698 53.7737 56.7498 51.9561 56.7498C50.1386 56.7498 49.3186 54.974 49.1358 54.0861L47.2555 45.86C47.0205 45.181 46.143 43.823 44.5135 43.823C42.8839 43.823 42.1109 45.181 41.9281 45.86C41.432 47.9753 40.3613 52.5819 40.0479 54.0861C39.6562 55.9663 38.6377 56.7498 37.3842 56.7498C36.3814 56.7498 35.7129 56.3319 35.504 56.123L28.6097 49.2288C27.983 48.602 27.2779 47.94 27.2779 46.5651Z" fill="#D4FF27"/>
<defs>
<filter id="filter0_d_2145_9366" x="22.5215" y="42.0144" width="322.231" height="66.9856" filterUnits="userSpaceOnUse" color-interpolation-filters="sRGB">
<feFlood flood-opacity="0" result="BackgroundImageFix"/>
<feColorMatrix in="SourceAlpha" type="matrix" values="0 0 0 0 0 0 0 0 0 0 0 0 0 0 0 0 0 0 127 0" result="hardAlpha"/>
<feOffset dy="-2"/>
<feGaussianBlur stdDeviation="2"/>
<feComposite in2="hardAlpha" operator="out"/>
<feColorMatrix type="matrix" values="0 0 0 0 0 0 0 0 0 0 0 0 0 0 0 0 0 0 0.14 0"/>
<feBlend mode="normal" in2="BackgroundImageFix" result="effect1_dropShadow_2145_9366"/>
<feBlend mode="normal" in="SourceGraphic" in2="effect1_dropShadow_2145_9366" result="shape"/>
</filter>
<filter id="filter1_d_2145_9366" x="7.50781" y="30.6521" width="351.188" height="66.9856" filterUnits="userSpaceOnUse" color-interpolation-filters="sRGB">
<feFlood flood-opacity="0" result="BackgroundImageFix"/>
<feColorMatrix in="SourceAlpha" type="matrix" values="0 0 0 0 0 0 0 0 0 0 0 0 0 0 0 0 0 0 127 0" result="hardAlpha"/>
<feOffset dy="-2"/>
<feGaussianBlur stdDeviation="2"/>
<feComposite in2="hardAlpha" operator="out"/>
<feColorMatrix type="matrix" values="0 0 0 0 0 0 0 0 0 0 0 0 0 0 0 0 0 0 0.14 0"/>
<feBlend mode="normal" in2="BackgroundImageFix" result="effect1_dropShadow_2145_9366"/>
<feBlend mode="normal" in="SourceGraphic" in2="effect1_dropShadow_2145_9366" result="shape"/>
</filter>
<filter id="filter2_d_2145_9366" x="0" y="0" width="367" height="83" filterUnits="userSpaceOnUse" color-interpolation-filters="sRGB">
<feFlood flood-opacity="0" result="BackgroundImageFix"/>
<feColorMatrix in="SourceAlpha" type="matrix" values="0 0 0 0 0 0 0 0 0 0 0 0 0 0 0 0 0 0 127 0" result="hardAlpha"/>
<feOffset dy="-2"/>
<feGaussianBlur stdDeviation="2"/>
<feComposite in2="hardAlpha" operator="out"/>
<feColorMatrix type="matrix" values="0 0 0 0 0 0 0 0 0 0 0 0 0 0 0 0 0 0 0.14 0"/>
<feBlend mode="normal" in2="BackgroundImageFix" result="effect1_dropShadow_2145_9366"/>
<feBlend mode="normal" in="SourceGraphic" in2="effect1_dropShadow_2145_9366" result="shape"/>
</filter>
<filter id="filter3_d_2145_9366" x="12.7143" y="17.8571" width="56.5714" height="56.5714" filterUnits="userSpaceOnUse" color-interpolation-filters="sRGB">
<feFlood flood-opacity="0" result="BackgroundImageFix"/>
<feColorMatrix in="SourceAlpha" type="matrix" values="0 0 0 0 0 0 0 0 0 0 0 0 0 0 0 0 0 0 127 0" result="hardAlpha"/>
<feOffset dy="3.14286"/>
<feGaussianBlur stdDeviation="3.14286"/>
<feComposite in2="hardAlpha" operator="out"/>
<feColorMatrix type="matrix" values="0 0 0 0 0 0 0 0 0 0 0 0 0 0 0 0 0 0 0.07 0"/>
<feBlend mode="normal" in2="BackgroundImageFix" result="effect1_dropShadow_2145_9366"/>
<feBlend mode="normal" in="SourceGraphic" in2="effect1_dropShadow_2145_9366" result="shape"/>
</filter>
</defs>
</svg>
