<svg width="157" height="120" viewBox="0 0 157 120" fill="none" xmlns="http://www.w3.org/2000/svg">
<rect x="7.93555" y="9.271" width="140.193" height="30.1547" rx="10.5806" fill="#013106"/>
<rect x="7.93555" y="20.9102" width="140.193" height="35.9741" rx="10.5806" fill="#144B06"/>
<rect x="7.93555" y="31.7798" width="140.193" height="41.2644" rx="10.5806" fill="#427404"/>
<rect x="7.93555" y="46.3032" width="140.193" height="65.0707" rx="10.5806" fill="#6D9A02"/>
<path d="M0.52903 81.7483C0.52903 73.2753 7.39782 66.4065 15.8709 66.4065H39.1482H51.4966C55.9341 66.4065 60.1541 68.3278 63.0678 71.6746L65.9272 74.959C72.4641 82.4676 84.1288 82.4676 90.6657 74.959L93.525 71.6746C96.4387 68.3278 100.659 66.4065 105.096 66.4065H117.445H140.722C149.195 66.4065 156.064 73.2753 156.064 81.7483V103.439C156.064 111.912 149.195 118.78 140.722 118.78H15.8709C7.39782 118.78 0.52903 111.912 0.52903 103.439V81.7483Z" stroke="#D4FF27" stroke-width="1.05806"/>
<rect x="0.52903" y="1.33567" width="155.535" height="117.445" rx="15.3419" stroke="#D4FF27" stroke-width="1.05806"/>
</svg>
