<svg width="20" height="20" viewBox="0 0 20 20" fill="none" xmlns="http://www.w3.org/2000/svg">
<path d="M9.43618 18.1055C13.8558 18.1055 16.8022 15.1172 16.8022 10.6139C16.8022 3.12221 10.4239 0 5.99588 0C5.20905 0 4.70682 0.276228 4.70682 0.811943C4.70682 1.02121 4.7989 1.23884 4.97468 1.43973C5.97078 2.62835 6.96687 4.04297 6.98361 5.69196C6.98361 6.06864 6.94176 6.40346 6.6739 6.87221L7.09243 6.78851C6.71575 5.55804 5.70292 4.6875 4.81564 4.6875C4.47245 4.6875 4.23807 4.93861 4.23807 5.31529C4.23807 5.53292 4.29666 6.04353 4.29666 6.41183C4.29666 8.28686 2.85693 9.38336 2.85693 12.4051C2.85693 15.8287 5.47691 18.1055 9.43618 18.1055ZM9.6287 15.7534C8.0634 15.7534 7.02546 14.8075 7.02546 13.4012C7.02546 11.928 8.07178 11.4006 8.20571 10.4548C8.22245 10.3794 8.27267 10.3544 8.33126 10.4046C8.71631 10.7478 8.96743 11.1663 9.17669 11.6518C9.62033 11.0491 9.82959 9.77679 9.68729 8.404C9.67892 8.32871 9.72914 8.28686 9.80448 8.31193C11.6376 9.17414 12.5919 10.9989 12.5919 12.6311C12.5919 14.2885 11.6209 15.7534 9.6287 15.7534Z" fill="#E3E3E3"/>
</svg>
