<svg width="12" height="16" viewBox="0 0 12 16" fill="none" xmlns="http://www.w3.org/2000/svg">
<path d="M1.83486 16H9.29665C10.4954 16 11.1315 15.3476 11.1315 14.0591V8.44036C11.1315 7.15185 10.4954 6.50764 9.29665 6.50764H1.83486C0.636085 6.50764 0 7.15185 0 8.44036V14.0591C0 15.3476 0.636085 16 1.83486 16ZM1.42711 7.13557H2.72375V4.3792C2.72375 2.32416 4.03669 1.2314 5.56167 1.2314C7.08665 1.2314 8.41593 2.32416 8.41593 4.3792V7.13557H9.70437V4.55861C9.70437 1.49235 7.69826 0 5.56167 0C3.43323 0 1.42711 1.49235 1.42711 4.55861V7.13557Z" fill="#AFD500"/>
</svg>
