<svg width="12" height="14" viewBox="0 0 12 14" fill="none" xmlns="http://www.w3.org/2000/svg">
<path d="M10 7.66718H9.54667L8.21333 9.00051H9.48667L10.6667 10.3338H1.33333L2.52 9.00051H3.88667L2.55333 7.66718H2L0 9.66718V12.3338C0 13.0672 0.593333 13.6672 1.32667 13.6672H10.6667C11.4 13.6672 12 13.0738 12 12.3338V9.66718L10 7.66718ZM9.33333 4.30051L6.03333 7.60051L3.67333 5.24051L6.97333 1.94052L9.33333 4.30051ZM6.50667 0.527182L2.26 4.77385C2 5.03385 2 5.45385 2.26 5.71385L5.56 9.01385C5.82 9.27385 6.24 9.27385 6.5 9.01385L10.74 4.77385C11 4.51385 11 4.09385 10.74 3.83385L7.44 0.533849C7.18667 0.267182 6.76667 0.267182 6.50667 0.527182Z" fill="#E3E3E3" fill-opacity="0.4"/>
</svg>
