<svg width="23" height="22" viewBox="0 0 23 22" fill="none" xmlns="http://www.w3.org/2000/svg">
<g id="fireworks" clip-path="url(#clip0_7168_4954)">
<g id="Group">
<path id="Vector" d="M18.1985 7.72707C18.3576 7.72707 18.4664 7.61822 18.4915 7.47593C18.8681 5.49212 18.8514 5.6093 20.7348 5.241C20.8771 5.21589 20.9859 5.11544 20.9859 4.93966C20.9859 4.78062 20.8687 4.68017 20.7348 4.64669C18.8431 4.26165 18.8681 4.36209 18.4915 2.41176C18.4664 2.26946 18.3576 2.16064 18.1985 2.16064C18.0227 2.16064 17.9223 2.26109 17.8971 2.41176C17.5121 4.37884 17.4536 4.28676 15.6706 4.64669C15.5283 4.68017 15.4195 4.78062 15.4195 4.93966C15.4195 5.11544 15.5199 5.21589 15.6706 5.241C17.4536 5.59257 17.5121 5.50049 17.8971 7.47593C17.9223 7.62657 18.0227 7.72707 18.1985 7.72707ZM9.54336 21.0864C9.67729 21.0864 9.761 20.9944 9.78615 20.8688C10.1126 19.3202 10.1126 19.3202 11.6444 19.0105C11.7699 18.9854 11.862 18.9017 11.862 18.7594C11.862 18.6255 11.7699 18.5334 11.6444 18.5166C10.1126 18.1986 10.1126 18.1986 9.78615 16.6584C9.761 16.5329 9.67729 16.4408 9.54336 16.4408C9.40108 16.4408 9.31736 16.5329 9.29229 16.6584C8.97422 18.1986 8.97422 18.1986 7.44236 18.5166C7.30845 18.5334 7.21638 18.6255 7.21638 18.7594C7.21638 18.9017 7.30845 18.9854 7.44236 19.0105C8.97422 19.3202 8.97422 19.3286 9.29229 20.8688C9.31736 20.9944 9.40108 21.0864 9.54336 21.0864ZM5.19071 18.366C5.3079 18.366 5.37486 18.2991 5.3916 18.1902C5.65109 16.9263 5.65109 16.9263 6.90667 16.6751C7.01549 16.6501 7.09082 16.5914 7.09082 16.4659C7.09082 16.3487 7.01549 16.2734 6.90667 16.2566C5.65109 16.0055 5.65109 16.0055 5.3916 14.7416C5.37486 14.6327 5.3079 14.5658 5.19071 14.5658C5.06516 14.5658 4.99819 14.6327 4.98145 14.7416C4.72196 16.0055 4.72196 16.0055 3.46638 16.2566C3.35756 16.2734 3.28223 16.3487 3.28223 16.4659C3.28223 16.5914 3.35756 16.6501 3.46638 16.6751C4.72196 16.9263 4.72196 16.9263 4.98145 18.1902C4.99819 18.2991 5.06516 18.366 5.19071 18.366Z" fill="#FFCC00"/>
<path id="Vector_2" d="M17.4535 17.6545C17.7213 17.6545 17.9389 17.4452 17.9389 17.1773V15.8883L18.617 16.5579C18.8095 16.7505 19.1025 16.7588 19.2866 16.5579C19.4958 16.3738 19.4958 16.0808 19.2866 15.8799L18.6253 15.2103H19.906C20.1739 15.2103 20.3915 14.9926 20.3915 14.7248C20.3915 14.4569 20.1739 14.2477 19.906 14.2477H18.617L19.295 13.5697C19.4875 13.3771 19.4875 13.0842 19.295 12.8916C19.1025 12.6991 18.8095 12.6908 18.617 12.8916L17.9389 13.5613V12.2806C17.9389 12.0128 17.7213 11.7951 17.4535 11.7951C17.1856 11.7951 16.9763 12.0128 16.9763 12.2806V13.5613L16.3067 12.8916C16.1142 12.6991 15.8128 12.6991 15.6203 12.8916C15.4194 13.0842 15.4194 13.3771 15.6119 13.5697L16.2899 14.2477H15.0009C14.7414 14.2477 14.5321 14.4569 14.5321 14.7248C14.5321 14.9926 14.7414 15.2103 15.0009 15.2103H16.2899L15.6203 15.8799C15.4194 16.0808 15.4194 16.3738 15.6203 16.5579C15.8128 16.7588 16.1058 16.7588 16.3067 16.5579L16.9763 15.8883V17.1773C16.9763 17.4452 17.1856 17.6545 17.4535 17.6545ZM17.4618 11.2678C17.8134 11.2678 18.0896 10.9832 18.0896 10.6233C18.0896 10.2717 17.8134 9.98706 17.4618 9.98706C17.1019 9.98706 16.8256 10.2717 16.8256 10.6233C16.8256 10.9832 17.1019 11.2678 17.4618 11.2678ZM20.2408 12.5233C20.5673 12.5233 20.8351 12.2638 20.8351 11.9291C20.8351 11.6026 20.5673 11.3431 20.2408 11.3431C19.9144 11.3431 19.6549 11.6026 19.6549 11.9291C19.6549 12.2638 19.9144 12.5233 20.2408 12.5233ZM21.5634 15.361C21.9149 15.361 22.1995 15.0763 22.1995 14.7248C22.1995 14.3733 21.9149 14.097 21.5634 14.097C21.2035 14.097 20.9272 14.3733 20.9272 14.7248C20.9272 15.0763 21.2035 15.361 21.5634 15.361ZM20.2408 18.1148C20.5673 18.1148 20.8351 17.847 20.8351 17.5289C20.8351 17.1941 20.5673 16.9346 20.2408 16.9346C19.9144 16.9346 19.6549 17.1941 19.6549 17.5289C19.6549 17.847 19.9144 18.1148 20.2408 18.1148ZM17.4618 19.4626C17.8134 19.4626 18.0896 19.1863 18.0896 18.8348C18.0896 18.4748 17.8134 18.1902 17.4618 18.1902C17.1019 18.1902 16.8256 18.4748 16.8256 18.8348C16.8256 19.1863 17.1019 19.4626 17.4618 19.4626ZM14.6744 18.1065C15.0009 18.1065 15.2603 17.847 15.2603 17.5289C15.2603 17.1941 15.0009 16.9346 14.6744 16.9346C14.348 16.9346 14.0801 17.1941 14.0801 17.5289C14.0801 17.847 14.348 18.1065 14.6744 18.1065ZM13.3519 15.361C13.7118 15.361 13.9964 15.0763 13.988 14.7248C13.9964 14.3733 13.7118 14.097 13.3519 14.097C13.0003 14.097 12.7241 14.3733 12.7241 14.7248C12.7241 15.0763 13.0003 15.361 13.3519 15.361ZM14.6744 12.5233C15.0009 12.5233 15.2603 12.2638 15.2603 11.9291C15.2603 11.6026 15.0009 11.3431 14.6744 11.3431C14.348 11.3431 14.0801 11.6026 14.0801 11.9291C14.0801 12.2638 14.348 12.5233 14.6744 12.5233Z" fill="#FFCC00"/>
<path id="Vector_3" d="M6.88999 9.46832C7.16622 9.46832 7.39223 9.25903 7.39223 8.97446L7.38386 8.03696L8.0535 8.7066C8.23764 8.90746 8.56407 8.90746 8.765 8.7066C8.94915 8.51403 8.9575 8.1876 8.765 7.9951L8.087 7.34218H9.0245C9.30072 7.34218 9.52672 7.11618 9.52672 6.83995C9.52672 6.56372 9.30072 6.34609 9.0245 6.34609H8.087L8.75664 5.69318C8.9575 5.49229 8.94914 5.17421 8.75664 4.97332C8.55572 4.78917 8.23764 4.77243 8.03679 4.97332L7.39223 5.63459L7.38386 4.71383C7.38386 4.42086 7.17459 4.2116 6.88163 4.2116C6.61377 4.2116 6.38777 4.42086 6.38777 4.71383L6.39614 5.63459L5.73487 4.97332C5.53397 4.7808 5.22426 4.7808 5.01499 4.97332C4.83084 5.16584 4.82247 5.50066 5.01499 5.69318L5.69301 6.34609H4.75551C4.47928 6.34609 4.25328 6.56372 4.25328 6.83995C4.25328 7.11618 4.47928 7.34218 4.75551 7.34218H5.69301L5.02337 7.9951C4.82247 8.19596 4.83084 8.50568 5.02337 8.7066C5.21589 8.89911 5.53397 8.91582 5.73487 8.7066L6.38777 8.03696L6.39614 8.97446C6.39614 9.25903 6.6054 9.46832 6.88999 9.46832ZM6.89837 3.22388C7.19971 3.22388 7.44243 2.97276 7.44243 2.67142V0.838275C7.44243 0.536935 7.19971 0.294189 6.89837 0.294189C6.59703 0.294189 6.34592 0.536935 6.34592 0.838275V2.67142C6.34592 2.97276 6.59703 3.22388 6.89837 3.22388ZM8.7315 3.70937C8.99936 3.8684 9.32579 3.77633 9.48486 3.50848L10.4056 1.93481C10.5563 1.66695 10.4559 1.33213 10.2047 1.18147C9.93686 1.02243 9.61043 1.1145 9.45136 1.38236L8.53064 2.96439C8.37993 3.22388 8.48043 3.56707 8.7315 3.70937ZM10.0791 5.05703C10.2382 5.32488 10.573 5.40022 10.8325 5.25792L12.4146 4.34553C12.6741 4.20323 12.7661 3.86004 12.6154 3.60055C12.4648 3.33269 12.1299 3.24899 11.8705 3.39966L10.2801 4.31205C10.0289 4.45435 9.9285 4.8059 10.0791 5.05703ZM10.573 6.89854C10.573 7.20825 10.8241 7.4426 11.1171 7.4426L12.9503 7.45096C13.2516 7.45096 13.5111 7.19988 13.5111 6.90691C13.5111 6.59721 13.2516 6.35445 12.9586 6.35445L11.1171 6.34609C10.8241 6.34609 10.573 6.60558 10.573 6.89854ZM10.0791 8.73168C9.9285 9.00789 10.0373 9.33439 10.2801 9.48503L11.8621 10.4058C12.1299 10.5565 12.4648 10.456 12.6154 10.2132C12.7661 9.93703 12.6656 9.6106 12.4146 9.45996L10.8325 8.53082C10.5814 8.38853 10.2215 8.4806 10.0791 8.73168ZM8.7315 10.0793C8.472 10.2467 8.38836 10.5816 8.53064 10.8327L9.443 12.4147C9.59365 12.6742 9.94522 12.7747 10.2047 12.624C10.4642 12.4733 10.5396 12.1385 10.3972 11.879L9.48486 10.2802C9.33422 10.0375 8.991 9.92868 8.7315 10.0793ZM6.89837 10.5816C6.59703 10.5816 6.34592 10.8243 6.34592 11.1257V12.9588C6.34592 13.2602 6.59703 13.5029 6.89837 13.5029C7.19971 13.5029 7.44243 13.2602 7.44243 12.9588V11.1257C7.44243 10.8243 7.19971 10.5816 6.89837 10.5816ZM5.05685 10.0877C4.78899 9.92868 4.46254 10.0291 4.31187 10.2886L3.39112 11.8707C3.23207 12.1385 3.33252 12.4733 3.59201 12.6156C3.85987 12.7747 4.18632 12.6826 4.33699 12.4147L5.25774 10.841C5.41678 10.5732 5.31634 10.23 5.05685 10.0877ZM3.70919 8.74003C3.55852 8.48061 3.21533 8.39689 2.96422 8.53918L1.37382 9.45153C1.11433 9.60225 1.03062 9.94539 1.17292 10.2049C1.33196 10.4644 1.66678 10.5481 1.92627 10.4058L3.5083 9.49339C3.76779 9.34275 3.85987 8.99953 3.70919 8.74003ZM3.2237 6.90691C3.2237 6.58883 2.96422 6.35445 2.67124 6.35445L0.84647 6.34609C0.53676 6.34609 0.285645 6.60558 0.285645 6.89854C0.285645 7.20825 0.53676 7.4426 0.8381 7.4426L2.67124 7.45096C2.96422 7.45096 3.2237 7.19988 3.2237 6.90691ZM3.70919 5.0654C3.85987 4.78917 3.75942 4.46272 3.5083 4.32042L1.93464 3.39966C1.66678 3.24062 1.33196 3.34106 1.17292 3.59218C1.03062 3.8684 1.1227 4.19486 1.37382 4.33716L2.96422 5.26629C3.20696 5.40859 3.56689 5.32488 3.70919 5.0654ZM5.05685 3.71774C5.32471 3.5587 5.40842 3.2155 5.25774 2.97276L4.34535 1.38236C4.20306 1.12288 3.85149 1.02243 3.59201 1.1731C3.32415 1.33213 3.24882 1.66695 3.39949 1.92645L4.31187 3.51685C4.45417 3.76796 4.80573 3.8684 5.05685 3.71774Z" fill="#FFCC00"/>
</g>
</g>
<defs>
<clipPath id="clip0_7168_4954">
<rect width="21.9141" height="20.8008" fill="white" transform="translate(0.285645 0.285645)"/>
</clipPath>
</defs>
</svg>
