<svg width="16" height="17" viewBox="0 0 16 17" fill="none" xmlns="http://www.w3.org/2000/svg">
<g clip-path="url(#clip0_2656_25954)">
<path fill-rule="evenodd" clip-rule="evenodd" d="M11.1525 15.4204C14.0194 14.2194 15.8694 11.4106 15.8597 8.3015C15.8403 4.05923 12.3922 0.640237 8.14029 0.649923C5.04092 0.669294 2.2418 2.54829 1.06985 5.42489C-0.102097 8.3015 0.566205 11.6043 2.77451 13.7932C4.98281 15.9821 8.28558 16.6214 11.1525 15.4204ZM10.9297 14.8877C13.5835 13.7739 15.2979 11.1781 15.2882 8.30153C15.2688 4.37889 12.0726 1.2214 8.14027 1.24077C5.27336 1.26015 2.68732 2.99386 1.60254 5.65738C0.517758 8.31122 1.13763 11.3622 3.18128 13.3864C5.22493 15.401 8.27587 16.0015 10.9297 14.8877Z" fill="#7E7E7E"/>
<path d="M11.782 5.79307C11.2687 5.64779 10.736 5.4347 10.1936 5.22162C10.1646 5.08603 10.0387 4.92137 9.79651 4.70829C9.44784 4.39835 8.77953 4.40804 8.20809 4.54364C7.57853 4.39835 6.94897 4.34024 6.34846 4.48552C1.4379 5.8415 4.21765 9.13458 2.41614 12.4567C2.66796 12.9991 5.43802 16.176 9.43815 15.3236C9.43815 15.3236 8.07249 12.0402 11.1622 10.4615C13.6707 9.18301 15.4722 6.80036 11.782 5.79307Z" fill="#7E7E7E"/>
<path d="M8.20813 4.54357C8.56649 4.57262 9.86436 4.9891 10.1937 5.22155C9.91278 4.41766 8.98297 4.31111 8.20813 4.54357Z" fill="#7E7E7E"/>
<path d="M12.3923 7.95284C12.3923 8.21435 12.0727 8.34995 11.8887 8.16592C11.7046 7.9819 11.8305 7.66228 12.0921 7.65259C12.2567 7.66228 12.3923 7.78819 12.3923 7.95284ZM8.54715 6.58718C8.54715 7.13926 8.20816 7.6429 7.69483 7.85598C7.18149 8.06907 6.59068 7.95284 6.19357 7.55573C5.79646 7.15863 5.68024 6.56781 5.89332 6.05448C6.1064 5.54114 6.61005 5.20215 7.16212 5.20215C7.53017 5.20215 7.87885 5.34743 8.13068 5.59926C8.40187 5.87045 8.54715 6.21913 8.54715 6.58718Z" fill="#121212"/>
<path d="M8.14028 6.59689C8.14028 6.98431 7.90782 7.34268 7.53977 7.48796C7.18141 7.63324 6.76493 7.55576 6.48405 7.27488C6.20317 6.994 6.12568 6.5872 6.27097 6.21915C6.41625 5.86079 6.77462 5.61865 7.16204 5.61865C7.70443 5.62834 8.14028 6.06418 8.14028 6.59689Z" fill="#7E7E7E"/>
<path d="M13.506 8.56315C12.3922 9.34768 11.1234 9.93849 9.33158 9.93849C8.48894 9.93849 8.32428 9.04743 7.76252 9.48328C7.47196 9.70604 6.46466 10.2097 5.66076 10.1806C4.85686 10.1419 3.559 9.6673 3.20064 7.96265C3.05535 9.67699 2.98755 10.9361 2.33862 12.3793C3.61711 14.4326 6.66806 16.0113 9.43812 15.3333C9.13787 13.2509 10.9587 11.217 11.9757 10.1806C12.3728 9.77384 13.1186 9.1346 13.506 8.56315Z" fill="#7E7E7E"/>
<path d="M13.4576 8.61157C13.109 8.93119 12.7022 9.16365 12.2857 9.36704C11.8595 9.57044 11.4237 9.72541 10.9685 9.85132C10.5132 9.96755 10.0386 10.0547 9.56406 10.016C9.07978 9.97723 8.5955 9.81258 8.27588 9.45421L8.29525 9.43484C8.68267 9.68667 9.13789 9.77383 9.58343 9.79321C10.0386 9.80289 10.4939 9.77384 10.9394 9.68667C11.3849 9.58981 11.8305 9.45421 12.2566 9.27987C12.6828 9.10553 13.0993 8.90214 13.4673 8.61157H13.4576Z" fill="#121212"/>
</g>
<defs>
<clipPath id="clip0_2656_25954">
<rect width="15.4" height="15.4" fill="white" transform="translate(0.5 0.649902)"/>
</clipPath>
</defs>
</svg>
