<svg width="19" height="14" viewBox="0 0 19 14" fill="none" xmlns="http://www.w3.org/2000/svg">
<path d="M16.0931 1.14614C14.9196 0.609458 13.6734 0.218312 12.3727 0C12.2089 0.28199 12.027 0.664033 11.8996 0.964217C10.5161 0.764092 9.14252 0.764092 7.77805 0.964217C7.6507 0.664033 7.45966 0.28199 7.30502 0C5.99516 0.218312 4.74896 0.609458 3.58371 1.14614C1.22775 4.62095 0.591003 8.01389 0.909376 11.3613C2.47395 12.4984 3.98397 13.1898 5.46759 13.6446C5.83144 13.1534 6.15892 12.6257 6.44091 12.0709C5.90422 11.8708 5.39482 11.6252 4.90361 11.3341C5.03096 11.2431 5.15832 11.1431 5.27657 11.043C8.24199 12.3984 11.4539 12.3984 14.3829 11.043C14.5103 11.1431 14.6285 11.2431 14.7559 11.3341C14.2647 11.6252 13.7553 11.8708 13.2186 12.0709C13.5006 12.6257 13.8281 13.1534 14.1919 13.6446C15.6746 13.1898 17.1937 12.4984 18.7501 11.3613C19.1412 7.48633 18.1306 4.12069 16.0931 1.14614ZM6.85024 9.29649C5.95878 9.29649 5.23107 8.48693 5.23107 7.49543C5.23107 6.50394 5.94059 5.69432 6.85024 5.69432C7.75076 5.69432 8.48755 6.50394 8.46935 7.49543C8.46935 8.48693 7.75076 9.29649 6.85024 9.29649ZM12.8275 9.29649C11.936 9.29649 11.2074 8.48693 11.2074 7.49543C11.2074 6.50394 11.9178 5.69432 12.8275 5.69432C13.728 5.69432 14.4648 6.50394 14.4466 7.49543C14.4466 8.48693 13.7371 9.29649 12.8275 9.29649Z" fill="#AFD500"/>
</svg>
