<svg width="14" height="16" viewBox="0 0 14 16" fill="none" xmlns="http://www.w3.org/2000/svg">
<path d="M0.599099 16C0.930179 16 1.1982 15.7309 1.1982 15.3884V10.8542C1.39527 10.7645 2.13626 10.471 3.29505 10.471C6.21172 10.471 8.04052 11.947 10.8153 11.947C12.045 11.947 12.5022 11.8084 13.1014 11.5311C13.6453 11.2783 14 10.8543 14 10.1039V1.82671C14 1.38634 13.6374 1.13353 13.1802 1.13353C12.7939 1.13353 12.0687 1.47604 10.7129 1.47604C7.93808 1.47604 6.11712 0 3.19257 0C1.96284 0 1.49775 0.138634 0.89865 0.415902C0.35473 0.668705 0 1.09276 0 1.83486V15.3884C0 15.7228 0.275901 16 0.599099 16ZM1.1982 7.12742V4.3629C1.30856 4.09378 1.96284 3.71866 3.19257 3.71866C3.44482 3.71866 3.79167 3.73497 4.06757 3.76758V1.28032C5.13176 1.39449 6.06982 1.71254 7.03152 2.00612V4.49338C8.00898 4.80326 8.92341 5.06422 9.98764 5.16208V2.67482C10.2241 2.69928 10.4606 2.70744 10.7129 2.70744C11.5721 2.70744 12.2815 2.60143 12.8097 2.44648V4.93374C12.4155 5.04791 11.6588 5.1947 10.7129 5.1947C10.4685 5.1947 10.2162 5.17839 9.98764 5.16208V7.92658C10.2162 7.95107 10.4369 7.95921 10.7129 7.95921C11.5721 7.95921 12.2815 7.85323 12.8097 7.69826V10.0714C12.6993 10.3405 12.045 10.7156 10.8153 10.7156C10.5315 10.7156 10.2556 10.6993 9.98764 10.6666V7.92658C8.92341 7.80431 8.04052 7.60041 7.03152 7.2579V9.92454C6.11712 9.63916 5.17117 9.36185 4.06757 9.26401V6.53211C3.76802 6.49949 3.56307 6.48318 3.19257 6.48318C1.96284 6.48318 1.30856 6.85831 1.1982 7.12742ZM4.06757 6.53211C5.1554 6.65444 5.98311 6.93986 7.03152 7.2579V4.49338C6.04617 4.19164 5.16329 3.88175 4.06757 3.76758V6.53211Z" fill="#E3E3E3"/>
</svg>
