<svg width="390" height="432" viewBox="0 0 390 432" fill="none" xmlns="http://www.w3.org/2000/svg">
<rect x="104.99" y="244.356" width="265" height="57" rx="20" transform="rotate(-30 104.99 244.356)" fill="#013106"/>
<rect x="115.99" y="263.409" width="265" height="68" rx="20" transform="rotate(-30 115.99 263.409)" fill="#144B06"/>
<rect x="126.265" y="281.204" width="265" height="78" rx="20" transform="rotate(-30 126.265 281.204)" fill="#427404"/>
<rect x="139.99" y="304.979" width="265" height="123" rx="20" transform="rotate(-30 139.99 304.979)" fill="#6D9A02"/>
<path d="M161.366 370.002C153.358 356.132 158.11 338.396 171.981 330.388L210.086 308.388L230.3 296.717C237.564 292.523 246.289 291.679 254.221 294.404L262.007 297.079C279.804 303.192 298.899 292.167 302.503 273.698L304.08 265.619C305.687 257.386 310.779 250.252 318.043 246.058L338.258 234.388L376.363 212.388C390.233 204.379 407.969 209.132 415.977 223.002L436.477 258.509C444.486 272.38 439.733 290.116 425.863 298.124L221.481 416.124C207.61 424.132 189.874 419.38 181.866 405.509L161.366 370.002Z" stroke="#D4FF27" stroke-width="2"/>
<rect x="85.366" y="238.366" width="294" height="222" rx="29" transform="rotate(-30 85.366 238.366)" stroke="#D4FF27" stroke-width="2"/>
<circle cx="123.5" cy="109.5" r="28.5" fill="#95B600"/>
<circle cx="84.5" cy="28.5" r="27.5" stroke="#427404" stroke-width="2"/>
<circle cx="205.5" cy="85.5" r="27.5" stroke="#427404" stroke-width="2"/>
<circle cx="105.5" cy="153.5" r="27.5" stroke="#144B06" stroke-width="2"/>
<circle cx="60.5" cy="52.5" r="28.5" fill="#AFD500"/>
<circle cx="11.5" cy="134.5" r="28.5" fill="#6D9A02"/>
<path d="M60.0129 33.9688L49.001 53.3019L60.0129 60.2188L70.9985 53.2363L60.0129 33.9688Z" stroke="#121212" stroke-width="1.3125" stroke-miterlimit="10" stroke-linecap="round" stroke-linejoin="round"/>
<path d="M60.0127 72.0313V63.6313" stroke="#121212" stroke-width="1.3125" stroke-miterlimit="10" stroke-linecap="round" stroke-linejoin="round"/>
<path d="M60.0129 72.0314L49.001 56.7145L60.0129 63.6314L70.9985 56.6489L60.0129 72.0314Z" stroke="#121212" stroke-width="1.3125" stroke-miterlimit="10" stroke-linecap="round" stroke-linejoin="round"/>
<path d="M60.0129 48.1436L49.001 53.3017L60.0129 60.2186L70.9985 53.2361L60.0129 48.1436Z" stroke="#121212" stroke-width="1.3125" stroke-miterlimit="10" stroke-linecap="round" stroke-linejoin="round"/>
<path d="M60.0127 33.9688V60.2188" stroke="#121212" stroke-width="1.3125" stroke-miterlimit="10" stroke-linecap="round" stroke-linejoin="round"/>
<path d="M60.0129 33.9688L49.001 53.3019L60.0129 60.2188L70.9985 53.2363L60.0129 33.9688Z" stroke="#121212" stroke-width="1.3125" stroke-miterlimit="10" stroke-linecap="round" stroke-linejoin="round"/>
<path d="M20.6299 129.429C19.9811 129.058 19.1468 129.058 18.4053 129.429L13.2147 132.488L9.69255 134.434L4.59461 137.493C3.94581 137.864 3.11156 137.864 2.37004 137.493L-1.61562 135.083C-2.26441 134.712 -2.7279 133.971 -2.7279 133.136V128.502C-2.7279 127.76 -2.35714 127.019 -1.61562 126.555L2.37004 124.238C3.01884 123.867 3.85309 123.867 4.59461 124.238L8.58027 126.648C9.22907 127.019 9.69255 127.76 9.69255 128.595V131.653L13.2147 129.614V126.463C13.2147 125.721 12.844 124.98 12.1024 124.516L4.68727 120.16C4.03847 119.789 3.20422 119.789 2.46269 120.16L-5.13786 124.609C-5.87924 124.98 -6.25 125.721 -6.25 126.463V135.175C-6.25 135.917 -5.87924 136.659 -5.13771 137.122L2.37011 141.478C3.01891 141.849 3.85316 141.849 4.59468 141.478L9.69263 138.512L13.2148 136.473L18.3127 133.507C18.9615 133.136 19.7958 133.136 20.5373 133.507L24.523 135.824C25.1718 136.195 25.6353 136.937 25.6353 137.771V142.405C25.6353 143.147 25.2645 143.888 24.523 144.352L20.63 146.669C19.9812 147.04 19.147 147.04 18.4055 146.669L14.4198 144.352C13.771 143.981 13.3075 143.239 13.3075 142.405V139.439L9.78535 141.478V144.537C9.78535 145.279 10.1561 146.02 10.8976 146.484L18.4055 150.84C19.0543 151.211 19.8885 151.211 20.63 150.84L28.1377 146.484C28.7865 146.113 29.25 145.371 29.25 144.537V135.732C29.25 134.99 28.8792 134.249 28.1377 133.785L20.6299 129.429Z" fill="#121212"/>
<path d="M123.102 115.175L128.059 122.95L132.634 120.302L126.133 110.048L123.102 115.175ZM136.803 117.18V115.051L129.693 103.975L127.057 108.448L133.919 119.547L136.398 118.104C136.645 117.902 136.792 117.62 136.803 117.304V117.18ZM107.011 119.186L110.516 121.203L122.178 102.499L120.195 102.442C118.504 102.42 116.69 102.859 115.856 104.223L109.231 114.487L107 117.913C107.011 117.913 107.011 119.186 107.011 119.186ZM128.904 102.499L123.688 102.521L111.89 121.992L116.014 124.369L117.141 122.465L128.904 102.499Z" fill="black"/>
<path d="M139 102.476C138.955 101.383 138.369 100.392 137.445 99.8057L124.476 92.3465C123.563 91.8845 122.414 91.8845 121.501 92.3465C121.388 92.4028 108.892 99.648 108.892 99.648C108.723 99.7269 108.554 99.8283 108.397 99.9409C107.574 100.538 107.067 101.451 107.011 102.465V117.913L109.242 114.488L109.219 102.566C109.219 102.521 109.23 102.476 109.23 102.442C109.276 102.161 109.433 101.913 109.67 101.744C109.726 101.699 122.448 94.3409 122.481 94.3183C122.786 94.1719 123.157 94.1719 123.462 94.3183L136.262 101.676C136.566 101.868 136.758 102.194 136.769 102.555V117.316C136.758 117.631 136.634 117.924 136.386 118.116L133.907 119.558L132.634 120.302L128.059 122.95L123.417 125.643C123.169 125.733 122.876 125.733 122.628 125.631L117.14 122.476L116.014 124.381L120.949 127.22C121.107 127.31 121.253 127.4 121.377 127.457C121.557 127.558 121.693 127.626 121.738 127.648C122.087 127.817 122.594 127.919 123.045 127.919C123.462 127.919 123.867 127.84 124.25 127.693L137.727 119.885C138.504 119.288 138.955 118.386 139 117.406V102.476Z" fill="black"/>
</svg>
