<svg width="390" height="402" viewBox="0 0 390 402" fill="none" xmlns="http://www.w3.org/2000/svg">
<rect x="257" y="38" width="78.0242" height="62.8852" rx="8.15178" fill="#144B06"/>
<path d="M-23.1878 218.971L211.5 52.5002C231 37.4999 264.329 34.5001 282 59.5001C303.5 89.9175 285.5 116.105 271.5 126C263.5 131.655 138.82 220.924 73.5707 267.044C58.0705 278 51.5717 308.107 65.5001 329C81.5001 353 113.12 355.699 132.5 342C146.358 332.205 348.03 191.244 446.577 121.588" stroke="#013A07" stroke-width="16" stroke-linecap="round" stroke-linejoin="round"/>
<rect x="38" y="277" width="124" height="6" rx="3" fill="#346705"/>
<rect x="38" y="277" width="83" height="6" rx="3" fill="#D4FF27"/>
<rect x="68" y="316" width="124" height="6" rx="3" fill="#346705"/>
<rect x="48" y="316" width="42" height="6" rx="3" fill="#D4FF27"/>
<rect x="51" y="290" width="124" height="6" rx="3" fill="#346705"/>
<rect x="51" y="290" width="117" height="6" rx="3" fill="#D4FF27"/>
<rect x="30" y="303" width="185" height="6" rx="3" fill="#346705"/>
<rect x="30" y="303" width="41" height="6" rx="3" fill="#D4FF27"/>
<path d="M132.5 342C146.358 332.205 348.03 191.244 446.577 121.588" stroke="#013A07" stroke-width="16" stroke-linecap="round" stroke-linejoin="round"/>
<rect x="91" y="150" width="255" height="91" rx="20" fill="#7EA902"/>
<path d="M273.937 125.418C270.242 128.03 138.82 220.924 73.5706 267.044" stroke="#013A07" stroke-width="16" stroke-linecap="round" stroke-linejoin="round"/>
<rect x="36" y="113" width="255" height="91" rx="20" fill="#AFD500"/>
<circle cx="118.447" cy="159.447" r="13.4468" fill="#8EB801"/>
<circle cx="162.149" cy="159.447" r="13.4468" fill="#8EB801"/>
<circle cx="205.851" cy="159.447" r="13.4468" fill="#8EB801"/>
<rect x="247.316" y="31.6582" width="78.0242" height="62.8852" rx="8.15178" fill="#427404"/>
<path d="M246.36 89.4749C244.143 89.4749 242.016 88.5941 240.449 87.0264C238.881 85.4586 238 83.3323 238 81.1152V61.5534C238.015 59.3459 238.902 57.2339 240.468 55.6781C242.034 54.1224 244.152 53.2493 246.36 53.2494C247.997 53.3009 249.576 53.8664 250.874 54.8656L272.498 68.5755C273.842 69.4464 275.41 69.9098 277.012 69.9098C278.614 69.9098 280.182 69.4464 281.526 68.5755L303.15 54.8656C304.481 53.9655 306.058 53.4984 307.664 53.528C309.825 53.5263 311.902 54.361 313.461 55.8571C315.019 57.3533 315.938 59.3947 316.024 61.5534V81.1152C316.024 83.3323 315.143 85.4586 313.576 87.0264C312.008 88.5941 309.882 89.4749 307.664 89.4749H246.36Z" fill="#AFD500"/>
<path d="M246.36 27C244.557 27.0047 242.804 27.5919 241.362 28.6742C239.921 29.7565 238.867 31.2758 238.36 33.0056C237.852 34.7354 237.917 36.5829 238.545 38.2726C239.173 39.9624 240.331 41.4038 241.845 42.3819L272.553 61.9437C273.891 62.779 275.435 63.2218 277.012 63.2218C278.589 63.2218 280.133 62.779 281.47 61.9437L312.179 42.3819C313.693 41.4038 314.85 39.9624 315.479 38.2726C316.107 36.5829 316.172 34.7354 315.664 33.0056C315.157 31.2758 314.103 29.7565 312.662 28.6742C311.22 27.5919 309.467 27.0047 307.664 27H246.36Z" fill="#AFD500"/>
<path d="M283.04 274.617C283.475 272.482 286.525 272.482 286.96 274.617L288.399 281.677C288.697 283.14 290.434 283.773 291.603 282.844L297.244 278.36C298.949 277.004 301.285 278.965 300.246 280.879L296.81 287.213C296.098 288.525 297.022 290.126 298.515 290.166L305.718 290.357C307.895 290.415 308.425 293.418 306.399 294.217L299.695 296.86C298.306 297.407 297.985 299.228 299.103 300.218L304.498 304.995C306.129 306.438 304.604 309.079 302.539 308.389L295.704 306.105C294.289 305.631 292.872 306.82 293.092 308.296L294.155 315.424C294.476 317.578 291.611 318.621 290.472 316.764L286.705 310.621C285.925 309.349 284.075 309.349 283.295 310.621L279.528 316.764C278.389 318.621 275.524 317.578 275.845 315.424L276.908 308.296C277.128 306.82 275.711 305.631 274.296 306.105L267.461 308.389C265.396 309.079 263.871 306.438 265.502 304.995L270.897 300.218C272.015 299.228 271.694 297.407 270.305 296.86L263.601 294.217C261.575 293.418 262.105 290.415 264.282 290.357L271.485 290.166C272.978 290.126 273.902 288.525 273.19 287.213L269.754 280.879C268.715 278.965 271.051 277.004 272.756 278.36L278.397 282.844C279.566 283.773 281.303 283.14 281.601 281.677L283.04 274.617Z" fill="#AFD500"/>
<path d="M77.4668 72.9773C77.918 70.763 81.082 70.763 81.5332 72.9773L84.2459 86.2889C84.5552 87.8065 86.3579 88.4626 87.5703 87.4988L98.2049 79.0453C99.9738 77.6391 102.398 79.6729 101.32 81.6591L94.8415 93.6001C94.1029 94.9614 95.0621 96.6228 96.6104 96.6639L110.191 97.0238C112.45 97.0837 112.999 100.2 110.897 101.028L98.2586 106.011C96.8177 106.58 96.4846 108.469 97.6443 109.495L107.816 118.501C109.508 119.998 107.926 122.739 105.783 122.022L92.8984 117.716C91.4294 117.225 89.9598 118.458 90.1883 119.99L92.192 133.426C92.5253 135.661 89.5521 136.743 88.3708 134.817L81.2689 123.236C80.4592 121.916 78.5408 121.916 77.7311 123.236L70.6292 134.817C69.4479 136.743 66.4747 135.661 66.808 133.426L68.8117 119.99C69.0402 118.458 67.5706 117.225 66.1016 117.716L53.2171 122.022C51.0739 122.739 49.4919 119.998 51.1839 118.501L61.3557 109.495C62.5154 108.469 62.1823 106.58 60.7414 106.011L48.1031 101.028C46.0009 100.2 46.5503 97.0837 48.8092 97.0238L62.3896 96.6639C63.9379 96.6228 64.8971 94.9614 64.1585 93.6001L57.68 81.6591C56.6024 79.6729 59.0262 77.6391 60.7951 79.0453L71.4297 87.4988C72.6421 88.4626 74.4448 87.8065 74.7541 86.2889L77.4668 72.9773Z" fill="#619003"/>
</svg>
