<svg width="19" height="19" viewBox="0 0 19 19" fill="none" xmlns="http://www.w3.org/2000/svg">
<g id="checkmark.bubble">
<g id="Group">
<path id="Vector" d="M5.14788 18.3902C5.55804 18.3902 5.84264 18.1725 6.35324 17.7205L9.24107 15.1507H14.6149C17.1094 15.1507 18.4486 13.7696 18.4486 11.3171V4.90524C18.4486 2.45267 17.1094 1.07153 14.6149 1.07153H3.83371C1.33929 1.07153 0 2.4443 0 4.90524V11.3171C0 13.778 1.33929 15.1507 3.83371 15.1507H4.23549V17.3271C4.23549 17.9717 4.56194 18.3902 5.14788 18.3902ZM5.49107 16.8584V14.4309C5.49107 13.9789 5.31529 13.8031 4.86328 13.8031H3.83371C2.14286 13.8031 1.34766 12.941 1.34766 11.3087V4.90524C1.34766 3.27298 2.14286 2.41919 3.83371 2.41919H14.6149C16.2974 2.41919 17.101 3.27298 17.101 4.90524V11.3087C17.101 12.941 16.2974 13.8031 14.6149 13.8031H9.19086C8.72207 13.8031 8.48771 13.8701 8.16964 14.1965L5.49107 16.8584Z" fill="#34C759"/>
<path id="Vector_2" d="M8.32042 12.087C8.59671 12.087 8.83107 11.9531 8.99007 11.6936L12.8154 5.67516C12.9159 5.51612 13.0247 5.32359 13.0247 5.13944C13.0247 4.76277 12.6899 4.52002 12.3383 4.52002C12.1207 4.52002 11.9114 4.65395 11.7607 4.8967L8.27857 10.4715L6.6296 8.33701C6.43708 8.06915 6.24456 8.00215 6.01855 8.00215C5.65025 8.00215 5.37402 8.29515 5.37402 8.66343C5.37402 8.84758 5.44099 9.02336 5.55817 9.18243L7.60057 11.6936C7.81821 11.9698 8.03585 12.087 8.32042 12.087Z" fill="#34C759"/>
</g>
</g>
</svg>
