<svg width="16" height="16" viewBox="0 0 16 16" fill="none" xmlns="http://www.w3.org/2000/svg">
<path d="M4.46461 15.9492C4.82033 15.9492 5.06716 15.7604 5.50999 15.3684L8.01453 13.1397H12.6751C14.8385 13.1397 16 11.9419 16 9.8149V4.25407C16 2.12702 14.8385 0.929199 12.6751 0.929199H3.32487C1.16153 0.929199 0 2.11977 0 4.25407V9.8149C0 11.9492 1.16153 13.1397 3.32487 13.1397H3.67333V15.0272C3.67333 15.5862 3.95645 15.9492 4.46461 15.9492ZM4.76225 14.6207V12.5154C4.76225 12.1234 4.60981 11.9709 4.21779 11.9709H3.32487C1.85844 11.9709 1.16879 11.2232 1.16879 9.80759V4.25407C1.16879 2.83846 1.85844 2.09799 3.32487 2.09799H12.6751C14.1343 2.09799 14.8312 2.83846 14.8312 4.25407V9.80759C14.8312 11.2232 14.1343 11.9709 12.6751 11.9709H7.97098C7.56441 11.9709 7.36116 12.029 7.08531 12.3122L4.76225 14.6207Z" fill="#AFD500"/>
<path d="M6.46109 9.77119L8.00737 8.63872L9.55366 9.77119C9.85125 9.99625 10.207 9.79299 10.0691 9.39374L9.46649 7.57885L11.0491 6.43907C11.3685 6.20676 11.2306 5.83655 10.8676 5.83655H8.90754L8.32677 4.02892C8.21787 3.68046 7.79681 3.68046 7.68797 4.02892L7.09989 5.83655H5.13985C4.77687 5.83655 4.63167 6.20676 4.95836 6.43907L6.54818 7.57885L5.93839 9.39374C5.80772 9.79299 6.15618 9.99625 6.46109 9.77119Z" fill="#AFD500"/>
</svg>
