<svg width="14" height="16" viewBox="0 0 14 16" fill="none" xmlns="http://www.w3.org/2000/svg">
<path d="M2.65658 16H11.3434C13.0955 16 14 15.1657 14 13.5708V6.96262H7.88824C6.86962 6.96262 6.38068 6.51961 6.38068 5.59668V0H2.65658C0.912689 0 0 0.834333 0 2.43655V13.5708C0 15.1657 0.912689 16 2.65658 16ZM8.04307 5.88463H13.9185C13.8696 5.54499 13.6007 5.2275 13.1769 4.83618L8.71944 0.745731C8.31199 0.369174 7.94529 0.118136 7.57043 0.0738348V5.45639C7.57858 5.74435 7.73341 5.88463 8.04307 5.88463ZM3.83818 10.2335C3.48778 10.2335 3.23516 10.0046 3.23516 9.70928C3.23516 9.41394 3.48778 9.18505 3.83818 9.18505H10.1863C10.5204 9.18505 10.7811 9.41394 10.7811 9.70928C10.7811 10.0046 10.5204 10.2335 10.1863 10.2335H3.83818ZM3.83818 13.0023C3.48778 13.0023 3.23516 12.7734 3.23516 12.4781C3.23516 12.1827 3.48778 11.9539 3.83818 11.9539H10.1863C10.5204 11.9539 10.7811 12.1827 10.7811 12.4781C10.7811 12.7734 10.5204 13.0023 10.1863 13.0023H3.83818Z" fill="#E3E3E3"/>
</svg>
