<svg width="15" height="16" viewBox="0 0 15 16" fill="none" xmlns="http://www.w3.org/2000/svg">
<path d="M12.5 8.80045H11.9333L10.2667 10.4004H11.8583L13.3333 12.0003H1.66667L3.15 10.4004H4.85833L3.19167 8.80045H2.5L0 11.2003V14.4001C0 15.28 0.741667 16 1.65833 16H13.3333C14.25 16 15 15.288 15 14.4001V11.2003L12.5 8.80045ZM11.6667 4.76071L7.54167 8.72046L4.59167 5.88864L8.71667 1.92889L11.6667 4.76071ZM8.13333 0.232995L2.825 5.32867C2.5 5.64065 2.5 6.14462 2.825 6.4566L6.95 10.4164C7.275 10.7283 7.8 10.7283 8.125 10.4164L13.425 5.32867C13.75 5.01669 13.75 4.51272 13.425 4.20074L9.3 0.240994C8.98333 -0.0789855 8.45833 -0.0789855 8.13333 0.232995Z" fill="#E3E3E3"/>
</svg>
