<svg width="17" height="20" viewBox="0 0 17 20" fill="none" xmlns="http://www.w3.org/2000/svg">
<g id="globe.desk" clip-path="url(#clip0_7168_2707)">
<g id="Group">
<path id="Vector" d="M4.31159 4.4977L5.26584 3.54346L2.64586 0.93185C2.38637 0.663993 1.9511 0.663993 1.69162 0.93185C1.43213 1.19134 1.43213 1.61823 1.69162 1.88609L4.31159 4.4977ZM15.051 14.2745L14.1135 13.3119C12.7826 14.6595 10.9327 15.4715 8.86514 15.4715C4.73849 15.4715 1.49072 12.2237 1.49072 8.097C1.49072 6.03787 2.30267 4.18799 3.63358 2.86544L2.65422 1.94469C1.09731 3.50997 0.143066 5.67795 0.143066 8.097C0.143066 12.9603 4.00188 16.8191 8.86514 16.8191C11.301 16.8191 13.4774 15.8481 15.051 14.2745ZM13.3351 11.621L12.3389 12.5251L15.2854 15.4715C15.5449 15.7309 15.9718 15.7309 16.2312 15.4715C16.4991 15.212 16.4991 14.7767 16.2312 14.5172L13.3351 11.621ZM8.18714 16.4676V18.6941H9.53478V16.4676H8.18714ZM5.86015 19.5563H11.8869C12.2552 19.5563 12.5566 19.2549 12.5566 18.8866C12.5566 18.5184 12.2552 18.2086 11.8869 18.2086H5.86015C5.49184 18.2086 5.18213 18.5184 5.18213 18.8866C5.18213 19.2549 5.49184 19.5563 5.86015 19.5563ZM8.86514 14.2494C12.2552 14.2494 15.0091 11.4955 15.0091 8.097C15.0091 4.70696 12.2552 1.95306 8.86514 1.95306C5.46672 1.95306 2.71282 4.70696 2.71282 8.097C2.71282 11.4955 5.46672 14.2494 8.86514 14.2494ZM8.86514 12.9854C5.99407 12.9854 3.97677 10.9681 3.97677 8.097C3.97677 5.22594 5.99407 3.21701 8.86514 3.21701C11.7363 3.21701 13.7452 5.22594 13.7452 8.097C13.7452 10.9681 11.7363 12.9854 8.86514 12.9854Z" fill="#40CBE0"/>
</g>
</g>
<defs>
<clipPath id="clip0_7168_2707">
<rect width="16.2891" height="18.8421" fill="white" transform="translate(0.143066 0.714355)"/>
</clipPath>
</defs>
</svg>
