<svg width="390" height="384" viewBox="0 0 390 384" fill="none" xmlns="http://www.w3.org/2000/svg">
<path d="M101.951 188.85C102.719 191.385 103.248 194.024 103.512 196.74L102.905 196.799C103.032 198.102 103.097 199.424 103.097 200.762C103.097 202.099 103.032 203.421 102.905 204.725L103.512 204.784C103.248 207.5 102.719 210.138 101.951 212.673L101.367 212.496C100.593 215.051 99.572 217.499 98.3327 219.813L98.8708 220.101C97.5974 222.479 96.0965 224.716 94.3973 226.784L93.9257 226.397C92.2454 228.442 90.3682 230.319 88.3231 231.999L88.7106 232.471C86.6424 234.17 84.4051 235.671 82.0276 236.945L81.7395 236.406C79.4257 237.646 76.9775 238.666 74.4222 239.44L74.5992 240.025C72.0645 240.792 69.4261 241.322 66.7101 241.586L66.651 240.979C65.3473 241.105 64.0253 241.17 62.688 241.17C61.3506 241.17 60.0286 241.105 58.725 240.979L58.6658 241.586C55.9498 241.322 53.3114 240.792 50.7767 240.025L50.9537 239.44C48.3985 238.666 45.9502 237.646 43.6365 236.406L43.3483 236.945C40.9709 235.671 38.7335 234.17 36.6654 232.471L37.0529 231.999C35.0078 230.319 33.1305 228.442 31.4502 226.397L30.9786 226.784C29.2794 224.716 27.7785 222.479 26.5051 220.101L27.0432 219.813C25.8039 217.499 24.7834 215.051 24.0093 212.496L23.4251 212.673C22.6572 210.138 22.128 207.5 21.8636 204.784L22.4711 204.725C22.3443 203.421 22.2793 202.099 22.2793 200.762C22.2793 199.424 22.3443 198.102 22.4711 196.799L21.8636 196.74C22.128 194.024 22.6572 191.385 23.4251 188.85L24.0093 189.027C24.7834 186.472 25.8039 184.024 27.0432 181.71L26.5051 181.422C27.7785 179.045 29.2794 176.807 30.9786 174.739L31.4502 175.127C33.1305 173.081 35.0077 171.204 37.0529 169.524L36.6654 169.052C38.7335 167.353 40.9709 165.852 43.3483 164.579L43.6365 165.117C45.9502 163.878 48.3985 162.857 50.9537 162.083L50.7767 161.499C53.3114 160.731 55.9498 160.202 58.6658 159.937L58.725 160.545C60.0286 160.418 61.3506 160.353 62.688 160.353C64.0253 160.353 65.3473 160.418 66.651 160.545L66.7101 159.937C69.4261 160.202 72.0645 160.731 74.5992 161.499L74.4222 162.083C76.9775 162.857 79.4257 163.878 81.7394 165.117L82.0276 164.579C84.4051 165.852 86.6424 167.353 88.7106 169.052L88.3231 169.524C90.3682 171.204 92.2454 173.081 93.9257 175.127L94.3973 174.739C96.0965 176.807 97.5974 179.045 98.8708 181.422L98.3327 181.71C99.572 184.024 100.593 186.472 101.367 189.027L101.951 188.85Z" stroke="#E3E3E3" stroke-opacity="0.4" stroke-width="1.22076" stroke-dasharray="8.55 8.55"/>
<circle cx="194.707" cy="200.762" r="40.4086" stroke="#E3E3E3" stroke-opacity="0.4" stroke-width="1.22076" stroke-dasharray="8.55 8.55"/>
<circle cx="326.726" cy="200.331" r="40.4086" stroke="#E3E3E3" stroke-opacity="0.4" stroke-width="1.22076" stroke-dasharray="8.55 8.55"/>
<path d="M-151 13.2208C-112.75 13.2208 -47.4796 12 -9.39185 12C35.7763 12 68.0927 56.6671 41.8463 101.835L5.46806 166.464C-1.6274 181.95 -3.66643 190.375 -3.66643 200.762C-3.66643 243.16 33.9056 267.633 62.8602 267.633C87.8508 267.633 128.87 247.813 128.87 200.762C128.87 158.709 163.167 134.58 194.362 134.58C225.557 134.58 260.716 156.985 260.716 200.417C260.716 214.718 257.848 231.526 241.662 250.202L128.87 375.332" stroke="url(#paint0_radial_2660_29016)" stroke-width="23.9561"/>
<path d="M271.544 368.484L376.752 248.334C390.448 231.526 393.561 214.077 393.561 197.286C393.561 170.5 376.13 154.332 369.282 146.861L346.248 124.139C313.254 91.1443 329.44 27.3345 390.448 27.3345H515.578" stroke="url(#paint1_radial_2660_29016)" stroke-width="23.9561"/>
<defs>
<radialGradient id="paint0_radial_2660_29016" cx="0" cy="0" r="1" gradientUnits="userSpaceOnUse" gradientTransform="translate(98 205.5) rotate(-0.275901) scale(311.504 140.116)">
<stop stop-color="#D5F74D"/>
<stop offset="0.833333" stop-color="#215310"/>
<stop offset="1" stop-color="#1C1C1E" stop-opacity="0"/>
</radialGradient>
<radialGradient id="paint1_radial_2660_29016" cx="0" cy="0" r="1" gradientUnits="userSpaceOnUse" gradientTransform="translate(365 180) rotate(-23.6013) scale(233.534 152.003)">
<stop stop-color="#D5F74D"/>
<stop offset="0.770833" stop-color="#215310"/>
<stop offset="1" stop-color="#1C1C1E" stop-opacity="0"/>
</radialGradient>
</defs>
</svg>
