<svg width="16" height="15" viewBox="0 0 16 15" fill="none" xmlns="http://www.w3.org/2000/svg">
<path d="M2.79365 14.709C3.64022 14.709 5.74956 13.7848 6.94888 12.9242C7.0688 12.8395 7.16753 12.8042 7.26631 12.8042C7.35806 12.8113 7.44974 12.8184 7.54143 12.8184C12.6279 12.8184 16 9.92595 16 6.41268C16 2.8642 12.4445 0 8.00003 0C3.55556 0 0 2.8642 0 6.41268C0 8.67017 1.38977 10.6526 3.65432 11.8659C3.76014 11.9224 3.79542 12.0282 3.73898 12.134C3.34392 12.7831 2.63845 13.5591 2.37037 13.9118C2.09524 14.2646 2.25044 14.709 2.79365 14.709Z" fill="#AFD500"/>
</svg>
