<svg width="176" height="163" viewBox="0 0 176 163" fill="none" xmlns="http://www.w3.org/2000/svg">
<path d="M81.2879 91.8623C85.1248 88.2993 91.0605 88.2993 94.8974 91.8623L165.588 157.507C167.585 159.363 166.273 162.706 163.546 162.706H12.6392C9.9127 162.706 8.5999 159.363 10.5978 157.507L81.2879 91.8623Z" fill="#AFD500"/>
<path d="M84.3143 0.997022C86.2677 -0.328373 88.8308 -0.332677 90.7887 0.986191L172.65 56.1297C172.884 56.27 173.11 56.4238 173.328 56.5907C173.856 56.9739 174.301 57.4315 174.659 57.9392C175.49 59.0561 176 60.46 176 62.069V145.444C176 148.467 172.403 150.043 170.181 147.994L120.677 102.349C119.187 100.976 119.187 98.6231 120.677 97.2497L155.932 64.7433C157.831 62.9925 157.597 59.928 155.455 58.4851L88.8675 13.6301C88.0844 13.1025 87.0591 13.1043 86.2778 13.6344L20.3777 58.348C18.245 59.795 18.0173 62.8517 19.9121 64.5987L55.3239 97.2497C56.8134 98.6231 56.8134 100.976 55.3239 102.349L5.81937 147.994C3.59743 150.043 0.000569536 148.467 0.000578355 145.444V62.069C0.000578355 61.9275 0.00452067 61.7876 0.012273 61.6494C-0.116844 59.671 0.776112 57.6781 2.53529 56.4845L84.3143 0.997022Z" fill="#619004"/>
</svg>
