<svg width="19" height="15" viewBox="0 0 19 15" fill="none" xmlns="http://www.w3.org/2000/svg">
<g clip-path="url(#clip0_2656_25993)">
<path d="M15.421 1.68743C14.2736 1.17977 13.0551 0.809777 11.7832 0.603271C11.6231 0.870011 11.4452 1.23139 11.3207 1.51534C9.96789 1.32604 8.62485 1.32604 7.29071 1.51534C7.16619 1.23139 6.9794 0.870011 6.82819 0.603271C5.54744 0.809777 4.32893 1.17977 3.18958 1.68743C0.885972 4.97431 0.263373 8.18376 0.574672 11.3502C2.10448 12.4257 3.58094 13.0797 5.03159 13.5099C5.38736 13.0453 5.70756 12.5462 5.98328 12.0214C5.45852 11.832 4.96044 11.5997 4.48015 11.3244C4.60467 11.2384 4.72919 11.1437 4.84482 11.0491C7.74434 12.3311 10.8849 12.3311 13.7488 11.0491C13.8733 11.1437 13.989 11.2384 14.1135 11.3244C13.6332 11.5997 13.1351 11.832 12.6104 12.0214C12.8861 12.5462 13.2063 13.0453 13.562 13.5099C15.0118 13.0797 16.4972 12.4257 18.0189 11.3502C18.4014 7.68473 17.4132 4.5011 15.421 1.68743ZM6.38351 9.39699C5.51187 9.39699 4.80033 8.63121 4.80033 7.69334C4.80033 6.75546 5.49408 5.98963 6.38351 5.98963C7.26403 5.98963 7.98444 6.75546 7.96665 7.69334C7.96665 8.63121 7.26403 9.39699 6.38351 9.39699ZM12.2279 9.39699C11.3563 9.39699 10.6438 8.63121 10.6438 7.69334C10.6438 6.75546 11.3385 5.98963 12.2279 5.98963C13.1085 5.98963 13.8289 6.75546 13.8111 7.69334C13.8111 8.63121 13.1174 9.39699 12.2279 9.39699Z" fill="#7E7E7E"/>
</g>
<defs>
<clipPath id="clip0_2656_25993">
<rect width="17.6" height="13.4933" fill="white" transform="translate(0.5 0.603271)"/>
</clipPath>
</defs>
</svg>
