<svg width="390" height="320" viewBox="0 0 390 320" fill="none" xmlns="http://www.w3.org/2000/svg">
<path d="M118.024 156.66C118.665 158.776 119.107 160.979 119.328 163.247L118.821 163.296C118.927 164.384 118.981 165.488 118.981 166.605C118.981 167.721 118.927 168.825 118.821 169.913L119.328 169.962C119.107 172.23 118.665 174.433 118.024 176.549L117.537 176.401C116.89 178.534 116.038 180.578 115.004 182.51L115.453 182.751C114.39 184.735 113.137 186.603 111.718 188.33L111.324 188.006C109.922 189.714 108.354 191.281 106.647 192.684L106.97 193.077C105.244 194.496 103.376 195.749 101.391 196.812L101.151 196.363C99.2189 197.398 97.175 198.25 95.0417 198.896L95.1894 199.384C93.0733 200.025 90.8706 200.467 88.6031 200.687L88.5538 200.18C87.4654 200.286 86.3617 200.34 85.2452 200.34C84.1287 200.34 83.025 200.286 81.9367 200.18L81.8873 200.687C79.6198 200.467 77.4171 200.025 75.301 199.384L75.4487 198.896C73.3155 198.25 71.2715 197.398 69.3399 196.363L69.0993 196.812C67.1144 195.749 65.2466 194.496 63.5199 193.078L63.8434 192.684C62.1361 191.281 60.5688 189.714 59.166 188.006L58.7723 188.33C57.3537 186.603 56.1007 184.735 55.0375 182.751L55.4868 182.51C54.4521 180.578 53.6002 178.534 52.9538 176.401L52.4661 176.549C51.825 174.433 51.3832 172.23 51.1625 169.962L51.6697 169.913C51.5638 168.825 51.5096 167.721 51.5096 166.605C51.5096 165.488 51.5638 164.384 51.6697 163.296L51.1625 163.247C51.3832 160.979 51.825 158.776 52.4661 156.66L52.9538 156.808C53.6002 154.675 54.4521 152.631 55.4867 150.699L55.0375 150.459C56.1007 148.474 57.3537 146.606 58.7723 144.879L59.166 145.203C60.5688 143.495 62.1361 141.928 63.8434 140.525L63.5199 140.132C65.2466 138.713 67.1144 137.46 69.0993 136.397L69.3399 136.846C71.2715 135.812 73.3155 134.96 75.4487 134.313L75.301 133.826C77.4171 133.184 79.6198 132.743 81.8873 132.522L81.9367 133.029C83.025 132.923 84.1287 132.869 85.2452 132.869C86.3617 132.869 87.4654 132.923 88.5538 133.029L88.6031 132.522C90.8706 132.743 93.0733 133.184 95.1894 133.826L95.0417 134.313C97.175 134.96 99.2189 135.812 101.151 136.846L101.391 136.397C103.376 137.46 105.244 138.713 106.97 140.132L106.647 140.525C108.354 141.928 109.922 143.495 111.324 145.203L111.718 144.879C113.137 146.606 114.39 148.474 115.453 150.459L115.004 150.699C116.038 152.631 116.89 154.675 117.537 156.808L118.024 156.66Z" stroke="#E3E3E3" stroke-opacity="0.4" stroke-width="1.01917" stroke-dasharray="7.13 7.13"/>
<circle cx="195.464" cy="166.605" r="33.7356" stroke="#E3E3E3" stroke-opacity="0.4" stroke-width="1.01917" stroke-dasharray="7.13 7.13"/>
<circle cx="305.681" cy="166.245" r="33.7356" stroke="#E3E3E3" stroke-opacity="0.4" stroke-width="1.01917" stroke-dasharray="7.13 7.13"/>
<path d="M340 208.5C351.434 194.467 358.633 181 358.633 166.689C358.633 144.326 344.08 130.827 338.363 124.59L319.133 105.62C291.588 78.0746 305.101 24.8022 356.034 24.8022H460.5" stroke="url(#paint0_radial_2645_13211)" stroke-width="20"/>
<path d="M193.329 112.337C219.373 112.337 248.726 131.043 248.726 167.302C248.726 179.241 245.013 193.408 231.5 209L138.653 313.332M83.5437 223.418C59.3706 223.418 28.0031 202.986 28.0031 167.59C28.0031 158.919 29.7054 151.885 35.6292 138.956L66 85C87.9121 47.2909 60.9324 10 23.2232 10C-8.57475 10 -63.0661 11.0192 -95 11.0192" stroke="url(#paint1_radial_2645_13211)" stroke-width="20"/>
<defs>
<radialGradient id="paint0_radial_2645_13211" cx="0" cy="0" r="1" gradientUnits="userSpaceOnUse" gradientTransform="translate(353.435 132.387) rotate(-21.1757) scale(185.603 104.769)">
<stop stop-color="#215310"/>
<stop offset="1" stop-color="#1C1C1E" stop-opacity="0"/>
</radialGradient>
<radialGradient id="paint1_radial_2645_13211" cx="0" cy="0" r="1" gradientUnits="userSpaceOnUse" gradientTransform="translate(77.507 123.5) rotate(8.32776) scale(327.958 119.705)">
<stop stop-color="#215310"/>
<stop offset="1" stop-color="#1C1C1E" stop-opacity="0"/>
</radialGradient>
</defs>
</svg>
