<svg width="28" height="28" viewBox="0 0 28 28" fill="none" xmlns="http://www.w3.org/2000/svg">
<circle cx="14" cy="14" r="14" fill="#E3E3E3" fill-opacity="0.4"/>
<path fill-rule="evenodd" clip-rule="evenodd" d="M16.626 14.3697C17.7113 12.3414 17.4405 9.76421 15.7743 7.99927C13.6892 5.79048 10.2082 5.69027 7.99939 7.77546C5.79059 9.86065 5.69038 13.3416 7.77557 15.5504C9.44174 17.3153 11.9991 17.734 14.0865 16.7672C14.7266 16.5016 15.2083 16.59 15.6286 17.0352C15.8283 17.2467 16.2654 18.043 16.7467 18.9198C17.3362 19.9936 17.9919 21.1881 18.3587 21.5766C19.0249 22.2824 20.2501 22.4606 21.1028 21.6556C21.9555 20.8506 21.848 19.6173 21.1818 18.9115C20.815 18.523 19.6602 17.7996 18.6221 17.1494C17.7744 16.6184 17.0046 16.1362 16.8049 15.9247C16.3846 15.4795 16.3241 14.9935 16.626 14.3697ZM14.1382 9.54383C15.3704 10.849 15.3112 12.906 14.006 14.1381C12.7008 15.3703 10.6438 15.3111 9.41168 14.0059C8.17952 12.7007 8.23874 10.6437 9.54394 9.41157C10.8491 8.17941 12.9061 8.23863 14.1382 9.54383Z" fill="#181818"/>
</svg>
