<svg width="18" height="14" viewBox="0 0 18 14" fill="none" xmlns="http://www.w3.org/2000/svg">
<path d="M17.3337 1.93709C16.7208 2.20867 16.0623 2.39218 15.3702 2.47512C16.0763 2.05233 16.618 1.38143 16.8734 0.582819C16.2128 0.974786 15.481 1.25959 14.7022 1.41226C14.0783 0.748708 13.1901 0.333252 12.2065 0.333252C10.3186 0.333252 8.78746 1.86442 8.78746 3.75379C8.78746 4.02097 8.81829 4.28081 8.87554 4.53185C6.03268 4.38871 3.51426 3.02711 1.82748 0.958637C1.53387 1.46511 1.36505 2.05233 1.36505 2.67771C1.36505 3.86389 1.96914 4.91134 2.88594 5.52424C2.32514 5.50589 1.79812 5.35248 1.33715 5.09631V5.14035C1.33715 6.79704 2.51526 8.1792 4.08019 8.49336C3.79245 8.57116 3.49077 8.61227 3.17954 8.61227C2.95934 8.61227 2.74427 8.59172 2.53581 8.55208C2.97108 9.91002 4.2336 10.8995 5.73027 10.9259C4.5595 11.8434 3.08486 12.3903 1.48322 12.3903C1.20723 12.3903 0.93491 12.3741 0.666992 12.3426C2.18054 13.3137 3.97742 13.8789 5.9079 13.8789C12.1985 13.8789 15.6373 8.66879 15.6373 4.15016C15.6373 4.00335 15.6337 3.85508 15.6271 3.70828C16.295 3.22529 16.8749 2.62413 17.3322 1.93929L17.3337 1.93709Z" fill="#AFD500"/>
</svg>
