<svg width="16" height="17" viewBox="0 0 16 17" fill="none" xmlns="http://www.w3.org/2000/svg">
<path fill-rule="evenodd" clip-rule="evenodd" d="M7.79998 16.0499C12.0526 16.0499 15.5 12.6025 15.5 8.3499C15.5 4.09731 12.0526 0.649902 7.79998 0.649902C3.54738 0.649902 0.0999756 4.09731 0.0999756 8.3499C0.0999756 12.6025 3.54738 16.0499 7.79998 16.0499ZM8.32882 7.50726H11.7733C12.0536 7.50723 12.1338 7.78519 11.9736 7.94406C11.8133 8.10293 5.80555 13.2651 5.64534 13.3842C5.48513 13.5032 5.16472 13.2651 5.28487 13.0268C5.40503 12.7885 6.6333 10.4192 7.28748 9.17503H3.76293C3.56263 9.17499 3.45346 8.92586 3.64276 8.7382C3.80284 8.5795 7.88124 5.09103 9.92564 3.34235L9.9309 3.33784C10.1085 3.18592 10.4716 3.37751 10.3314 3.65551C10.1712 3.97319 8.9296 6.35571 8.32882 7.50726Z" fill="#7E7E7E"/>
</svg>
