<svg width="17" height="17" viewBox="0 0 17 17" fill="none" xmlns="http://www.w3.org/2000/svg">
<g clip-path="url(#clip0_2656_26000)">
<path fill-rule="evenodd" clip-rule="evenodd" d="M8.57708 0.649902C4.33187 0.649902 0.900024 4.10704 0.900024 8.384C0.900024 11.8028 3.09892 14.6967 6.14938 15.721C6.53077 15.798 6.67047 15.5546 6.67047 15.3498C6.67047 15.1705 6.6579 14.5559 6.6579 13.9156C4.52232 14.3766 4.07761 12.9936 4.07761 12.9936C3.73441 12.0973 3.2259 11.8669 3.2259 11.8669C2.52692 11.3931 3.27681 11.3931 3.27681 11.3931C4.05215 11.4444 4.459 12.187 4.459 12.187C5.14524 13.365 6.25105 13.0321 6.69592 12.8272C6.75941 12.3278 6.96291 11.9821 7.17898 11.7901C5.47571 11.6108 3.68365 10.945 3.68365 7.97417C3.68365 7.12906 3.98851 6.43763 4.47157 5.89989C4.39535 5.70786 4.12837 4.91382 4.54794 3.85106C4.54794 3.85106 5.19615 3.64615 6.65774 4.64494C7.2835 4.47565 7.92883 4.38953 8.57708 4.3888C9.2253 4.3888 9.88608 4.47853 10.4963 4.64494C11.958 3.64615 12.6062 3.85106 12.6062 3.85106C13.0258 4.91382 12.7587 5.70786 12.6824 5.89989C13.1782 6.43763 13.4705 7.12906 13.4705 7.97417C13.4705 10.945 11.6785 11.5979 9.96245 11.7901C10.2422 12.0333 10.4835 12.4942 10.4835 13.2242C10.4835 14.2613 10.471 15.0937 10.471 15.3497C10.471 15.5546 10.6108 15.798 10.9921 15.7212C14.0425 14.6966 16.2414 11.8028 16.2414 8.384C16.254 4.10704 12.8096 0.649902 8.57708 0.649902Z" fill="#7E7E7E"/>
</g>
<defs>
<clipPath id="clip0_2656_26000">
<rect width="15.4" height="15.0857" fill="white" transform="translate(0.900024 0.649902)"/>
</clipPath>
</defs>
</svg>
