<svg width="76" height="76" viewBox="0 0 76 76" fill="none" xmlns="http://www.w3.org/2000/svg">
<circle cx="38" cy="38" r="38" fill="#404A29"/>
<mask id="mask0_6642_13560" style="mask-type:alpha" maskUnits="userSpaceOnUse" x="0" y="0" width="76" height="76">
<circle cx="38" cy="38" r="38" fill="#404A29"/>
</mask>
<g mask="url(#mask0_6642_13560)">
<path d="M30.8582 13.8184H30.849L30.8399 13.8188C29.8687 13.8659 28.4214 14.2016 27.2068 15.066C25.9758 15.942 24.9965 17.3545 24.9965 19.5012L24.997 33.5505C25.0284 34.0978 25.1001 34.8199 25.4354 35.6223C25.7718 36.4273 26.3656 37.2955 27.4166 38.1535C29.429 39.7965 32.5403 42.4112 34.2775 43.9181C34.8712 44.4331 35.9872 45.782 35.9872 47.5604C35.9872 49.793 34.5426 51.4625 32.7304 52.2058C31.5798 52.6778 28.9183 53.2926 25.6423 53.9613C23.4361 54.4116 20.9748 54.8819 18.5483 55.3455L18.5468 55.3458C17.3876 55.5673 16.2363 55.7873 15.1246 56.0028L15.1117 56.0053L15.099 56.0087C12.2986 56.7577 10.5254 58.8588 10.5254 61.59V61.5959L10.5256 61.6019C10.558 62.5445 10.8854 83.0406 11.7727 84.22C12.6725 85.4162 14.1384 86.3638 16.3871 86.3638H59.8004C62.0491 86.3638 63.515 85.4162 64.4148 84.22C65.3021 83.0406 65.6295 62.5445 65.6619 61.6019L65.6621 61.5959V61.59C65.6621 58.8588 63.8889 56.7577 61.0885 56.0087L61.0758 56.0053L61.0629 56.0028C59.9514 55.7873 58.8003 55.5674 57.6412 55.3459L57.6394 55.3456C55.213 54.8819 52.7514 54.4116 50.5452 53.9613C47.2691 53.2926 44.6077 52.6778 43.4571 52.2058C41.6449 51.4625 40.2003 49.793 40.2003 47.5604C40.2003 45.782 41.3163 44.4331 41.91 43.9181C43.6472 42.4112 46.7584 39.7965 48.7709 38.1535C49.8218 37.2955 50.4157 36.4273 50.752 35.6223C51.0873 34.8199 51.1591 34.0978 51.1904 33.5505L51.191 19.5012C51.191 17.3545 50.2117 15.942 48.9807 15.066C47.766 14.2016 46.3188 13.8659 45.3476 13.8188L45.3384 13.8184H45.3293H30.8582Z" fill="#AFD500"/>
</g>
</svg>
