<svg width="16" height="13" viewBox="0 0 16 13" fill="none" xmlns="http://www.w3.org/2000/svg">
<path d="M8.01447 7.59414C8.31159 7.59414 8.58694 7.45643 8.90577 7.13761L15.2102 0.898462C14.9421 0.637593 14.442 0.514404 13.7246 0.514404H2.05797C1.44928 0.514404 1.02174 0.630347 0.782606 0.869477L7.12317 7.13761C7.43476 7.4492 7.71018 7.59414 8.01447 7.59414ZM0.18116 11.8332L5.30434 6.76802L0.166667 1.70281C0.057971 1.90571 0 2.25354 0 2.75353V10.7535C0 11.2681 0.057971 11.6303 0.18116 11.8332ZM2.27536 12.9999H13.942C14.5507 12.9999 14.971 12.8839 15.2102 12.6521L9.98548 7.4782L9.50725 7.96367C9.00724 8.44197 8.53624 8.65932 8.01447 8.65932C7.48553 8.65932 7.01452 8.44197 6.52175 7.96367L6.03623 7.4782L0.826088 12.6448C1.10145 12.8839 1.57971 12.9999 2.27536 12.9999ZM15.8261 11.826C15.942 11.6159 16 11.2608 16 10.7535V2.75353C16 2.26803 15.942 1.9202 15.8406 1.72455L10.7174 6.76802L15.8261 11.826Z" fill="#AFD500"/>
</svg>
