<svg width="16" height="17" viewBox="0 0 16 17" fill="none" xmlns="http://www.w3.org/2000/svg">
<g clip-path="url(#clip0_2656_25976)">
<path d="M14.9838 8.3499C14.9838 4.49236 11.857 1.36535 8.00005 1.36535C4.14312 1.36535 1.01633 4.49236 1.01633 8.3499C1.01633 12.2074 4.14312 15.3345 8.00005 15.3345C11.857 15.3345 14.9838 12.2074 14.9838 8.3499ZM15.7 8.3499C15.7 12.6024 12.2528 16.0499 8.00005 16.0499C3.74733 16.0499 0.300049 12.6024 0.300049 8.3499C0.300049 4.09743 3.74733 0.649902 8.00005 0.649902C12.2528 0.649902 15.7 4.09743 15.7 8.3499Z" fill="#7E7E7E"/>
<path d="M11.5995 8.3499C11.5995 4.46624 9.93607 1.36535 7.99995 1.36535C6.06382 1.36535 4.4004 4.46624 4.4004 8.3499C4.4004 12.2336 6.06382 15.3345 7.99995 15.3345C9.93607 15.3345 11.5995 12.2336 11.5995 8.3499ZM12.2777 8.3499C12.2777 12.5762 10.4143 16.0499 7.99995 16.0499C5.58557 16.0499 3.72217 12.5762 3.72217 8.3499C3.72217 4.12358 5.58557 0.649902 7.99995 0.649902C10.4143 0.649902 12.2777 4.12358 12.2777 8.3499Z" fill="#7E7E7E"/>
<path d="M0.661115 8.34994H15.339C15.5384 8.34994 15.7 8.15842 15.7 7.92216C15.7 7.6859 15.5384 7.49438 15.339 7.49438H0.661115C0.4617 7.49438 0.300049 7.6859 0.300049 7.92216C0.300049 8.15842 0.4617 8.34994 0.661115 8.34994Z" fill="#7E7E7E"/>
<path d="M8 1.00781V15.692C8 15.8897 8.19152 16.0499 8.42778 16.0499C8.66404 16.0499 8.85556 15.8897 8.85556 15.692V1.00781C8.85556 0.810139 8.66404 0.649902 8.42778 0.649902C8.19152 0.649902 8 0.810139 8 1.00781Z" fill="#7E7E7E"/>
</g>
<defs>
<clipPath id="clip0_2656_25976">
<rect width="15.4" height="15.4" fill="white" transform="translate(0.300049 0.649902)"/>
</clipPath>
</defs>
</svg>
