<svg width="390" height="432" viewBox="0 0 390 432" fill="none" xmlns="http://www.w3.org/2000/svg">
<rect x="104.99" y="244.356" width="265" height="57" rx="20" transform="rotate(-30 104.99 244.356)" fill="#013106"/>
<rect x="115.99" y="263.409" width="265" height="68" rx="20" transform="rotate(-30 115.99 263.409)" fill="#144B06"/>
<rect x="126.265" y="281.204" width="265" height="78" rx="20" transform="rotate(-30 126.265 281.204)" fill="#427404"/>
<rect x="139.99" y="304.978" width="265" height="123" rx="20" transform="rotate(-30 139.99 304.978)" fill="#6D9A02"/>
<path d="M161.366 370.002C153.358 356.132 158.11 338.395 171.981 330.387L210.086 308.387L230.3 296.716C237.564 292.523 246.289 291.679 254.221 294.404L262.007 297.078C279.804 303.192 298.899 292.167 302.503 273.697L304.08 265.618C305.687 257.386 310.779 250.252 318.043 246.058L338.258 234.387L376.363 212.387C390.233 204.379 407.969 209.132 415.977 223.002L436.477 258.509C444.486 272.38 439.733 290.116 425.863 298.124L221.481 416.124C207.61 424.132 189.874 419.38 181.866 405.509L161.366 370.002Z" stroke="#D4FF27" stroke-width="2"/>
<rect x="85.366" y="238.366" width="294" height="222" rx="29" transform="rotate(-30 85.366 238.366)" stroke="#D4FF27" stroke-width="2"/>
<circle cx="123.5" cy="109.5" r="28.5" fill="#95B600"/>
<circle cx="84.5" cy="28.5" r="27.5" stroke="#427404" stroke-width="2"/>
<circle cx="205.5" cy="85.5" r="27.5" stroke="#427404" stroke-width="2"/>
<circle cx="105.5" cy="153.5" r="27.5" stroke="#144B06" stroke-width="2"/>
<circle cx="60.5" cy="52.5" r="28.5" fill="#AFD500"/>
<circle cx="11.5" cy="134.5" r="28.5" fill="#6D9A02"/>
<path d="M60.0129 33.9688L49.001 53.3019L60.0129 60.2188L70.9985 53.2363L60.0129 33.9688Z" stroke="#121212" stroke-width="1.3125" stroke-miterlimit="10" stroke-linecap="round" stroke-linejoin="round"/>
<path d="M60.0127 72.0311V63.6311" stroke="#121212" stroke-width="1.3125" stroke-miterlimit="10" stroke-linecap="round" stroke-linejoin="round"/>
<path d="M60.0129 72.0314L49.001 56.7145L60.0129 63.6314L70.9985 56.6489L60.0129 72.0314Z" stroke="#121212" stroke-width="1.3125" stroke-miterlimit="10" stroke-linecap="round" stroke-linejoin="round"/>
<path d="M60.0129 48.1438L49.001 53.3019L60.0129 60.2188L70.9985 53.2363L60.0129 48.1438Z" stroke="#121212" stroke-width="1.3125" stroke-miterlimit="10" stroke-linecap="round" stroke-linejoin="round"/>
<path d="M60.0127 33.9688V60.2188" stroke="#121212" stroke-width="1.3125" stroke-miterlimit="10" stroke-linecap="round" stroke-linejoin="round"/>
<path d="M60.0129 33.9688L49.001 53.3019L60.0129 60.2188L70.9985 53.2363L60.0129 33.9688Z" stroke="#121212" stroke-width="1.3125" stroke-miterlimit="10" stroke-linecap="round" stroke-linejoin="round"/>
<path fill-rule="evenodd" clip-rule="evenodd" d="M142.025 109.917L131.515 98.7065V106.917L121.079 115.137L131.515 115.144V121.128L142.025 109.917Z" fill="#121212"/>
<path fill-rule="evenodd" clip-rule="evenodd" d="M104.976 109.913L115.486 121.123V112.979L125.921 104.693L115.486 104.685V98.7024L104.976 109.913Z" fill="#121212"/>
<path d="M20.6299 129.429C19.9811 129.058 19.1468 129.058 18.4053 129.429L13.2147 132.488L9.69255 134.434L4.59461 137.493C3.94581 137.864 3.11156 137.864 2.37004 137.493L-1.61562 135.083C-2.26441 134.712 -2.7279 133.971 -2.7279 133.136V128.502C-2.7279 127.76 -2.35714 127.019 -1.61562 126.555L2.37004 124.238C3.01884 123.867 3.85309 123.867 4.59461 124.238L8.58027 126.648C9.22907 127.019 9.69255 127.76 9.69255 128.595V131.653L13.2147 129.614V126.463C13.2147 125.721 12.844 124.98 12.1024 124.516L4.68727 120.16C4.03847 119.789 3.20422 119.789 2.46269 120.16L-5.13786 124.609C-5.87924 124.98 -6.25 125.721 -6.25 126.463V135.175C-6.25 135.917 -5.87924 136.659 -5.13772 137.122L2.37011 141.478C3.01891 141.849 3.85316 141.849 4.59468 141.478L9.69262 138.512L13.2148 136.473L18.3127 133.507C18.9615 133.136 19.7958 133.136 20.5373 133.507L24.523 135.824C25.1718 136.195 25.6352 136.937 25.6352 137.771V142.405C25.6352 143.147 25.2645 143.888 24.523 144.352L20.63 146.669C19.9812 147.04 19.147 147.04 18.4055 146.669L14.4198 144.352C13.771 143.981 13.3075 143.239 13.3075 142.405V139.439L9.78535 141.478V144.537C9.78535 145.279 10.1561 146.02 10.8976 146.484L18.4055 150.84C19.0543 151.211 19.8885 151.211 20.63 150.84L28.1377 146.484C28.7865 146.113 29.25 145.371 29.25 144.537V135.732C29.25 134.99 28.8792 134.249 28.1377 133.785L20.6299 129.429Z" fill="#121212"/>
</svg>
