<svg width="16" height="12" viewBox="0 0 16 12" fill="none" xmlns="http://www.w3.org/2000/svg">
<path fill-rule="evenodd" clip-rule="evenodd" d="M11.0147 3.58597C11.6704 3.03524 12.4021 2.82574 13.1039 2.8787C13.8524 2.93521 14.5451 3.28834 15.0623 3.80127C15.5797 4.31421 15.9351 5.00033 15.992 5.74082C16.0494 6.48796 15.8009 7.27064 15.1454 7.95743C15.0854 8.02068 15.0243 8.08309 14.9617 8.14475C11.9891 11.0919 8.04041 11.0997 7.99998 11.0997C7.97987 11.0997 4.01843 11.0995 1.03813 8.14437L1.03747 8.14372C0.976001 8.08234 0.915368 8.02058 0.855672 7.95836L0.855206 7.95789C0.199489 7.27167 -0.0493084 6.48927 0.0079546 5.74204C0.0646562 5.00164 0.419838 4.31552 0.936983 3.8023C1.45413 3.28927 2.14671 2.93587 2.89534 2.87907C3.597 2.82593 4.32888 3.03514 4.98507 3.5856C5.05562 2.73666 5.42315 2.07589 5.95676 1.62163C6.52584 1.13714 7.26745 0.900879 7.9998 0.900879C8.73215 0.900879 9.47376 1.13714 10.0429 1.62163C10.5765 2.07599 10.9442 2.73685 11.0147 3.58597Z" fill="#AFD500"/>
</svg>
