<svg width="19" height="15" viewBox="0 0 19 15" fill="none" xmlns="http://www.w3.org/2000/svg">
<path d="M18.5 1.89165C17.8528 2.17844 17.1575 2.37223 16.4266 2.45981C17.1722 2.01334 17.7443 1.30488 18.014 0.461541C17.3164 0.875458 16.5436 1.17621 15.7212 1.33743C15.0623 0.636719 14.1244 0.197998 13.0858 0.197998C11.0922 0.197998 9.47524 1.81491 9.47524 3.81008C9.47524 4.09223 9.50779 4.36662 9.56825 4.63172C6.56619 4.48057 3.90674 3.04271 2.1255 0.858405C1.81545 1.39324 1.63717 2.01334 1.63717 2.67375C1.63717 3.92635 2.2751 5.03246 3.24323 5.67969C2.65103 5.66031 2.09449 5.49831 1.60771 5.22779V5.27429C1.60771 7.02375 2.85179 8.48332 4.50436 8.81507C4.20051 8.89723 3.88193 8.94064 3.55328 8.94064C3.32074 8.94064 3.09363 8.91894 2.87349 8.87708C3.33314 10.3111 4.66636 11.3559 6.24684 11.3838C5.01052 12.3527 3.45329 12.9302 1.76196 12.9302C1.47052 12.9302 1.18295 12.9132 0.900024 12.8798C2.49833 13.9053 4.39584 14.5022 6.43442 14.5022C13.0772 14.5022 16.7087 9.00032 16.7087 4.22865C16.7087 4.07363 16.7048 3.91705 16.6979 3.76202C17.4032 3.25199 18.0156 2.61716 18.4985 1.89397L18.5 1.89165Z" fill="#7E7E7E"/>
</svg>
